<mxfile host="app.diagrams.net" agent="Mozilla/5.0 (Windows NT 10.0; Win64; x64) AppleWebKit/537.36 (KHTML, like Gecko) Chrome/140.0.0.0 Safari/537.36" version="28.2.3">
  <diagram name="PÃ¡gina-1" id="O2W9hljkqkn7-3kDOKYS">
    <mxGraphModel dx="3084" dy="1972" grid="1" gridSize="10" guides="1" tooltips="1" connect="1" arrows="1" fold="1" page="1" pageScale="1" pageWidth="827" pageHeight="1169" math="0" shadow="0">
      <root>
        <mxCell id="0" />
        <mxCell id="1" parent="0" />
        <mxCell id="GVWYBPbzkeyjMvykUmka-1" value="&lt;font style=&quot;vertical-align: inherit;&quot; dir=&quot;auto&quot;&gt;&lt;font style=&quot;vertical-align: inherit;&quot; dir=&quot;auto&quot;&gt;&lt;font style=&quot;vertical-align: inherit;&quot; dir=&quot;auto&quot;&gt;&lt;font style=&quot;vertical-align: inherit;&quot; dir=&quot;auto&quot;&gt;atributos&lt;/font&gt;&lt;/font&gt;&lt;span style=&quot;white-space: pre;&quot;&gt;&#x9;&lt;/span&gt;&lt;/font&gt;&lt;/font&gt;" style="swimlane;whiteSpace=wrap;html=1;" vertex="1" parent="1">
          <mxGeometry x="-350.07" y="-140" width="140" height="150" as="geometry" />
        </mxCell>
        <mxCell id="GVWYBPbzkeyjMvykUmka-2" value="&lt;font style=&quot;vertical-align: inherit;&quot; dir=&quot;auto&quot;&gt;&lt;font style=&quot;vertical-align: inherit;&quot; dir=&quot;auto&quot;&gt;&lt;font style=&quot;vertical-align: inherit;&quot; dir=&quot;auto&quot;&gt;&lt;font style=&quot;vertical-align: inherit;&quot; dir=&quot;auto&quot;&gt;nome&lt;/font&gt;&lt;/font&gt;&lt;/font&gt;&lt;/font&gt;" style="text;html=1;align=center;verticalAlign=middle;resizable=0;points=[];autosize=1;strokeColor=none;fillColor=none;" vertex="1" parent="GVWYBPbzkeyjMvykUmka-1">
          <mxGeometry x="11" y="50" width="50" height="30" as="geometry" />
        </mxCell>
        <mxCell id="GVWYBPbzkeyjMvykUmka-3" value="&lt;font style=&quot;vertical-align: inherit;&quot; dir=&quot;auto&quot;&gt;&lt;font style=&quot;vertical-align: inherit;&quot; dir=&quot;auto&quot;&gt;&lt;font style=&quot;vertical-align: inherit;&quot; dir=&quot;auto&quot;&gt;&lt;font style=&quot;vertical-align: inherit;&quot; dir=&quot;auto&quot;&gt;id_aluno&lt;/font&gt;&lt;/font&gt;&lt;/font&gt;&lt;/font&gt;" style="text;html=1;align=center;verticalAlign=middle;resizable=0;points=[];autosize=1;strokeColor=none;fillColor=none;" vertex="1" parent="GVWYBPbzkeyjMvykUmka-1">
          <mxGeometry x="9" y="30" width="70" height="30" as="geometry" />
        </mxCell>
        <mxCell id="GVWYBPbzkeyjMvykUmka-4" value="&lt;font style=&quot;vertical-align: inherit;&quot; dir=&quot;auto&quot;&gt;&lt;font style=&quot;vertical-align: inherit;&quot; dir=&quot;auto&quot;&gt;turma&lt;/font&gt;&lt;/font&gt;" style="text;html=1;align=center;verticalAlign=middle;resizable=0;points=[];autosize=1;strokeColor=none;fillColor=none;" vertex="1" parent="GVWYBPbzkeyjMvykUmka-1">
          <mxGeometry x="11" y="72" width="50" height="30" as="geometry" />
        </mxCell>
        <mxCell id="GVWYBPbzkeyjMvykUmka-5" value="&lt;font style=&quot;vertical-align: inherit;&quot; dir=&quot;auto&quot;&gt;&lt;font style=&quot;vertical-align: inherit;&quot; dir=&quot;auto&quot;&gt;&lt;font style=&quot;vertical-align: inherit;&quot; dir=&quot;auto&quot;&gt;&lt;font style=&quot;vertical-align: inherit;&quot; dir=&quot;auto&quot;&gt;atributos&lt;/font&gt;&lt;/font&gt;&lt;/font&gt;&lt;/font&gt;" style="swimlane;whiteSpace=wrap;html=1;" vertex="1" parent="1">
          <mxGeometry x="139.93" y="-140" width="140" height="160" as="geometry" />
        </mxCell>
        <mxCell id="GVWYBPbzkeyjMvykUmka-6" value="&lt;font style=&quot;vertical-align: inherit;&quot; dir=&quot;auto&quot;&gt;&lt;font style=&quot;vertical-align: inherit;&quot; dir=&quot;auto&quot;&gt;id_trabalho&lt;/font&gt;&lt;/font&gt;" style="text;html=1;align=center;verticalAlign=middle;resizable=0;points=[];autosize=1;strokeColor=none;fillColor=none;" vertex="1" parent="GVWYBPbzkeyjMvykUmka-5">
          <mxGeometry y="30" width="80" height="30" as="geometry" />
        </mxCell>
        <mxCell id="GVWYBPbzkeyjMvykUmka-7" value="&lt;font style=&quot;vertical-align: inherit;&quot; dir=&quot;auto&quot;&gt;&lt;font style=&quot;vertical-align: inherit;&quot; dir=&quot;auto&quot;&gt;id_aluno&lt;/font&gt;&lt;/font&gt;" style="text;html=1;align=center;verticalAlign=middle;resizable=0;points=[];autosize=1;strokeColor=none;fillColor=none;" vertex="1" parent="GVWYBPbzkeyjMvykUmka-5">
          <mxGeometry y="60" width="70" height="30" as="geometry" />
        </mxCell>
        <mxCell id="GVWYBPbzkeyjMvykUmka-8" value="&lt;font style=&quot;vertical-align: inherit;&quot; dir=&quot;auto&quot;&gt;&lt;font style=&quot;vertical-align: inherit;&quot; dir=&quot;auto&quot;&gt;nota&lt;/font&gt;&lt;/font&gt;" style="text;html=1;align=center;verticalAlign=middle;resizable=0;points=[];autosize=1;strokeColor=none;fillColor=none;" vertex="1" parent="GVWYBPbzkeyjMvykUmka-5">
          <mxGeometry y="85" width="50" height="30" as="geometry" />
        </mxCell>
        <mxCell id="GVWYBPbzkeyjMvykUmka-9" style="edgeStyle=orthogonalEdgeStyle;rounded=0;orthogonalLoop=1;jettySize=auto;html=1;" edge="1" parent="1" source="GVWYBPbzkeyjMvykUmka-13">
          <mxGeometry relative="1" as="geometry">
            <mxPoint x="-170.07" y="-220" as="targetPoint" />
          </mxGeometry>
        </mxCell>
        <mxCell id="GVWYBPbzkeyjMvykUmka-10" value="&lt;font style=&quot;vertical-align: inherit;&quot; dir=&quot;auto&quot;&gt;&lt;font style=&quot;vertical-align: inherit;&quot; dir=&quot;auto&quot;&gt;1&lt;/font&gt;&lt;/font&gt;" style="edgeLabel;html=1;align=center;verticalAlign=middle;resizable=0;points=[];" vertex="1" connectable="0" parent="GVWYBPbzkeyjMvykUmka-9">
          <mxGeometry x="0.7227" y="-1" relative="1" as="geometry">
            <mxPoint x="-1" as="offset" />
          </mxGeometry>
        </mxCell>
        <mxCell id="GVWYBPbzkeyjMvykUmka-11" style="edgeStyle=orthogonalEdgeStyle;rounded=0;orthogonalLoop=1;jettySize=auto;html=1;exitX=1;exitY=0.5;exitDx=0;exitDy=0;" edge="1" parent="1" source="GVWYBPbzkeyjMvykUmka-13">
          <mxGeometry relative="1" as="geometry">
            <mxPoint x="149.93" y="-220" as="targetPoint" />
          </mxGeometry>
        </mxCell>
        <mxCell id="GVWYBPbzkeyjMvykUmka-12" value="&lt;font style=&quot;vertical-align: inherit;&quot; dir=&quot;auto&quot;&gt;&lt;font style=&quot;vertical-align: inherit;&quot; dir=&quot;auto&quot;&gt;N&lt;/font&gt;&lt;/font&gt;" style="edgeLabel;html=1;align=center;verticalAlign=middle;resizable=0;points=[];" vertex="1" connectable="0" parent="GVWYBPbzkeyjMvykUmka-11">
          <mxGeometry x="0.6666" y="-2" relative="1" as="geometry">
            <mxPoint as="offset" />
          </mxGeometry>
        </mxCell>
        <mxCell id="GVWYBPbzkeyjMvykUmka-13" value="&lt;font style=&quot;vertical-align: inherit;&quot; dir=&quot;auto&quot;&gt;&lt;font style=&quot;vertical-align: inherit;&quot; dir=&quot;auto&quot;&gt;FAZ&lt;/font&gt;&lt;/font&gt;" style="rhombus;whiteSpace=wrap;html=1;" vertex="1" parent="1">
          <mxGeometry x="-40.06999999999999" y="-260" width="80" height="80" as="geometry" />
        </mxCell>
        <mxCell id="GVWYBPbzkeyjMvykUmka-14" value="&lt;font style=&quot;vertical-align: inherit;&quot; dir=&quot;auto&quot;&gt;&lt;font style=&quot;vertical-align: inherit;&quot; dir=&quot;auto&quot;&gt;&lt;font style=&quot;vertical-align: inherit;&quot; dir=&quot;auto&quot;&gt;&lt;font style=&quot;vertical-align: inherit;&quot; dir=&quot;auto&quot;&gt;ALUNO&lt;/font&gt;&lt;/font&gt;&lt;/font&gt;&lt;/font&gt;" style="rounded=0;whiteSpace=wrap;html=1;" vertex="1" parent="1">
          <mxGeometry x="-290.07" y="-240" width="120" height="60" as="geometry" />
        </mxCell>
        <mxCell id="GVWYBPbzkeyjMvykUmka-15" value="&lt;font style=&quot;vertical-align: inherit;&quot; dir=&quot;auto&quot;&gt;&lt;font style=&quot;vertical-align: inherit;&quot; dir=&quot;auto&quot;&gt;TRABALHO&lt;/font&gt;&lt;/font&gt;" style="rounded=1;whiteSpace=wrap;html=1;" vertex="1" parent="1">
          <mxGeometry x="149.93" y="-240" width="120" height="60" as="geometry" />
        </mxCell>
        <mxCell id="GVWYBPbzkeyjMvykUmka-16" value="" style="endArrow=none;html=1;rounded=0;edgeStyle=orthogonalEdgeStyle;entryX=0;entryY=0.75;entryDx=0;entryDy=0;startArrow=oval;startFill=1;" edge="1" parent="1" target="GVWYBPbzkeyjMvykUmka-14">
          <mxGeometry width="50" height="50" relative="1" as="geometry">
            <mxPoint x="-350.07" y="-99" as="sourcePoint" />
            <mxPoint x="-410.07" y="-200" as="targetPoint" />
            <Array as="points">
              <mxPoint x="-350.07" y="-98" />
              <mxPoint x="-409.07" y="-98" />
              <mxPoint x="-409.07" y="-195" />
            </Array>
          </mxGeometry>
        </mxCell>
        <mxCell id="GVWYBPbzkeyjMvykUmka-17" value="" style="endArrow=none;html=1;rounded=0;edgeStyle=orthogonalEdgeStyle;startArrow=oval;startFill=0;" edge="1" parent="1" target="GVWYBPbzkeyjMvykUmka-15">
          <mxGeometry width="50" height="50" relative="1" as="geometry">
            <mxPoint x="289.93" y="-60" as="sourcePoint" />
            <mxPoint x="329.93" y="-220" as="targetPoint" />
            <Array as="points">
              <mxPoint x="279.93" y="-60" />
              <mxPoint x="279.93" y="-59" />
              <mxPoint x="340.93" y="-59" />
              <mxPoint x="340.93" y="-210" />
            </Array>
          </mxGeometry>
        </mxCell>
        <mxCell id="GVWYBPbzkeyjMvykUmka-18" value="" style="endArrow=none;html=1;rounded=0;startArrow=oval;startFill=1;edgeStyle=orthogonalEdgeStyle;entryX=1;entryY=0.75;entryDx=0;entryDy=0;" edge="1" parent="1" target="GVWYBPbzkeyjMvykUmka-15">
          <mxGeometry width="50" height="50" relative="1" as="geometry">
            <mxPoint x="289.93" y="-100" as="sourcePoint" />
            <mxPoint x="309.93" y="-190" as="targetPoint" />
            <Array as="points">
              <mxPoint x="279.93" y="-100" />
              <mxPoint x="279.93" y="-99" />
              <mxPoint x="330.93" y="-99" />
              <mxPoint x="330.93" y="-195" />
            </Array>
          </mxGeometry>
        </mxCell>
        <mxCell id="GVWYBPbzkeyjMvykUmka-19" value="" style="endArrow=none;html=1;rounded=0;edgeStyle=orthogonalEdgeStyle;entryX=0;entryY=0;entryDx=0;entryDy=0;startArrow=none;startFill=0;" edge="1" parent="1" target="GVWYBPbzkeyjMvykUmka-14">
          <mxGeometry width="50" height="50" relative="1" as="geometry">
            <mxPoint x="-350.07" y="-50" as="sourcePoint" />
            <mxPoint x="-451.07" y="-250" as="targetPoint" />
            <Array as="points">
              <mxPoint x="-450.07" y="-50" />
              <mxPoint x="-450.07" y="-240" />
            </Array>
          </mxGeometry>
        </mxCell>
        <mxCell id="GVWYBPbzkeyjMvykUmka-20" value="" style="endArrow=none;html=1;rounded=0;edgeStyle=orthogonalEdgeStyle;entryX=0;entryY=0.25;entryDx=0;entryDy=0;startArrow=none;startFill=0;exitX=0;exitY=0.5;exitDx=0;exitDy=0;" edge="1" parent="1" source="GVWYBPbzkeyjMvykUmka-1" target="GVWYBPbzkeyjMvykUmka-14">
          <mxGeometry width="50" height="50" relative="1" as="geometry">
            <mxPoint x="-460.07" y="-70" as="sourcePoint" />
            <mxPoint x="-410.07" y="-220" as="targetPoint" />
            <Array as="points">
              <mxPoint x="-430.07" y="-65" />
              <mxPoint x="-430.07" y="-220" />
              <mxPoint x="-290.07" y="-220" />
            </Array>
          </mxGeometry>
        </mxCell>
        <mxCell id="GVWYBPbzkeyjMvykUmka-21" value="" style="endArrow=none;html=1;rounded=0;edgeStyle=orthogonalEdgeStyle;startArrow=none;startFill=0;" edge="1" parent="1">
          <mxGeometry width="50" height="50" relative="1" as="geometry">
            <mxPoint x="289.93" y="-40" as="sourcePoint" />
            <mxPoint x="269.93" y="-190" as="targetPoint" />
            <Array as="points">
              <mxPoint x="279.93" y="-40" />
              <mxPoint x="279.93" y="-39" />
              <mxPoint x="340.93" y="-39" />
              <mxPoint x="340.93" y="-220" />
              <mxPoint x="269.93" y="-220" />
            </Array>
          </mxGeometry>
        </mxCell>
        <mxCell id="GVWYBPbzkeyjMvykUmka-22" value="EXERCÃCIO 1" style="text;html=1;align=center;verticalAlign=middle;resizable=0;points=[];autosize=1;strokeColor=none;fillColor=none;" vertex="1" parent="1">
          <mxGeometry x="-60.06999999999999" y="-320" width="100" height="30" as="geometry" />
        </mxCell>
        <mxCell id="GVWYBPbzkeyjMvykUmka-23" value="EXERCÃCIO 2" style="text;html=1;align=center;verticalAlign=middle;resizable=0;points=[];autosize=1;strokeColor=none;fillColor=none;" vertex="1" parent="1">
          <mxGeometry x="-50.06999999999999" y="280" width="100" height="30" as="geometry" />
        </mxCell>
        <mxCell id="GVWYBPbzkeyjMvykUmka-24" value="&lt;font style=&quot;vertical-align: inherit;&quot; dir=&quot;auto&quot;&gt;&lt;font style=&quot;vertical-align: inherit;&quot; dir=&quot;auto&quot;&gt;&lt;font style=&quot;vertical-align: inherit;&quot; dir=&quot;auto&quot;&gt;&lt;font style=&quot;vertical-align: inherit;&quot; dir=&quot;auto&quot;&gt;atributos&lt;/font&gt;&lt;/font&gt;&lt;span style=&quot;white-space: pre;&quot;&gt;&#x9;&lt;/span&gt;&lt;/font&gt;&lt;/font&gt;" style="swimlane;whiteSpace=wrap;html=1;" vertex="1" parent="1">
          <mxGeometry x="-350.07" y="440" width="140" height="150" as="geometry" />
        </mxCell>
        <mxCell id="GVWYBPbzkeyjMvykUmka-25" value="&lt;font style=&quot;vertical-align: inherit;&quot; dir=&quot;auto&quot;&gt;&lt;font style=&quot;vertical-align: inherit;&quot; dir=&quot;auto&quot;&gt;&lt;font style=&quot;vertical-align: inherit;&quot; dir=&quot;auto&quot;&gt;&lt;font style=&quot;vertical-align: inherit;&quot; dir=&quot;auto&quot;&gt;nome&lt;/font&gt;&lt;/font&gt;&lt;/font&gt;&lt;/font&gt;" style="text;html=1;align=center;verticalAlign=middle;resizable=0;points=[];autosize=1;strokeColor=none;fillColor=none;" vertex="1" parent="GVWYBPbzkeyjMvykUmka-24">
          <mxGeometry x="11" y="50" width="50" height="30" as="geometry" />
        </mxCell>
        <mxCell id="GVWYBPbzkeyjMvykUmka-26" value="id_diretor" style="text;html=1;align=center;verticalAlign=middle;resizable=0;points=[];autosize=1;strokeColor=none;fillColor=none;" vertex="1" parent="GVWYBPbzkeyjMvykUmka-24">
          <mxGeometry x="9" y="30" width="70" height="30" as="geometry" />
        </mxCell>
        <mxCell id="GVWYBPbzkeyjMvykUmka-27" value="&lt;font style=&quot;vertical-align: inherit;&quot; dir=&quot;auto&quot;&gt;&lt;font style=&quot;vertical-align: inherit;&quot; dir=&quot;auto&quot;&gt;telefone&lt;/font&gt;&lt;/font&gt;" style="text;html=1;align=center;verticalAlign=middle;resizable=0;points=[];autosize=1;strokeColor=none;fillColor=none;" vertex="1" parent="GVWYBPbzkeyjMvykUmka-24">
          <mxGeometry x="1" y="72" width="70" height="30" as="geometry" />
        </mxCell>
        <mxCell id="GVWYBPbzkeyjMvykUmka-28" value="&lt;font style=&quot;vertical-align: inherit;&quot; dir=&quot;auto&quot;&gt;&lt;font style=&quot;vertical-align: inherit;&quot; dir=&quot;auto&quot;&gt;&lt;font style=&quot;vertical-align: inherit;&quot; dir=&quot;auto&quot;&gt;&lt;font style=&quot;vertical-align: inherit;&quot; dir=&quot;auto&quot;&gt;atributos&lt;/font&gt;&lt;/font&gt;&lt;/font&gt;&lt;/font&gt;" style="swimlane;whiteSpace=wrap;html=1;" vertex="1" parent="1">
          <mxGeometry x="139.93" y="440" width="140" height="160" as="geometry" />
        </mxCell>
        <mxCell id="GVWYBPbzkeyjMvykUmka-29" value="&lt;font style=&quot;vertical-align: inherit;&quot; dir=&quot;auto&quot;&gt;&lt;font style=&quot;vertical-align: inherit;&quot; dir=&quot;auto&quot;&gt;id_departamento&lt;/font&gt;&lt;/font&gt;" style="text;html=1;align=center;verticalAlign=middle;resizable=0;points=[];autosize=1;strokeColor=none;fillColor=none;" vertex="1" parent="GVWYBPbzkeyjMvykUmka-28">
          <mxGeometry y="30" width="110" height="30" as="geometry" />
        </mxCell>
        <mxCell id="GVWYBPbzkeyjMvykUmka-30" value="&lt;font style=&quot;vertical-align: inherit;&quot; dir=&quot;auto&quot;&gt;&lt;font style=&quot;vertical-align: inherit;&quot; dir=&quot;auto&quot;&gt;id_diretor&lt;/font&gt;&lt;/font&gt;" style="text;html=1;align=center;verticalAlign=middle;resizable=0;points=[];autosize=1;strokeColor=none;fillColor=none;" vertex="1" parent="GVWYBPbzkeyjMvykUmka-28">
          <mxGeometry y="60" width="70" height="30" as="geometry" />
        </mxCell>
        <mxCell id="GVWYBPbzkeyjMvykUmka-31" value="&lt;font style=&quot;vertical-align: inherit;&quot; dir=&quot;auto&quot;&gt;&lt;font style=&quot;vertical-align: inherit;&quot; dir=&quot;auto&quot;&gt;nome&lt;/font&gt;&lt;/font&gt;" style="text;html=1;align=center;verticalAlign=middle;resizable=0;points=[];autosize=1;strokeColor=none;fillColor=none;" vertex="1" parent="GVWYBPbzkeyjMvykUmka-28">
          <mxGeometry y="85" width="50" height="30" as="geometry" />
        </mxCell>
        <mxCell id="GVWYBPbzkeyjMvykUmka-32" style="edgeStyle=orthogonalEdgeStyle;rounded=0;orthogonalLoop=1;jettySize=auto;html=1;" edge="1" parent="1" source="GVWYBPbzkeyjMvykUmka-36">
          <mxGeometry relative="1" as="geometry">
            <mxPoint x="-170.07" y="360" as="targetPoint" />
          </mxGeometry>
        </mxCell>
        <mxCell id="GVWYBPbzkeyjMvykUmka-33" value="&lt;font style=&quot;vertical-align: inherit;&quot; dir=&quot;auto&quot;&gt;&lt;font style=&quot;vertical-align: inherit;&quot; dir=&quot;auto&quot;&gt;1&lt;/font&gt;&lt;/font&gt;" style="edgeLabel;html=1;align=center;verticalAlign=middle;resizable=0;points=[];" vertex="1" connectable="0" parent="GVWYBPbzkeyjMvykUmka-32">
          <mxGeometry x="0.7227" y="-1" relative="1" as="geometry">
            <mxPoint x="-1" as="offset" />
          </mxGeometry>
        </mxCell>
        <mxCell id="GVWYBPbzkeyjMvykUmka-34" style="edgeStyle=orthogonalEdgeStyle;rounded=0;orthogonalLoop=1;jettySize=auto;html=1;exitX=1;exitY=0.5;exitDx=0;exitDy=0;" edge="1" parent="1" source="GVWYBPbzkeyjMvykUmka-36">
          <mxGeometry relative="1" as="geometry">
            <mxPoint x="149.93" y="360" as="targetPoint" />
          </mxGeometry>
        </mxCell>
        <mxCell id="GVWYBPbzkeyjMvykUmka-35" value="1" style="edgeLabel;html=1;align=center;verticalAlign=middle;resizable=0;points=[];" vertex="1" connectable="0" parent="GVWYBPbzkeyjMvykUmka-34">
          <mxGeometry x="0.6666" y="-2" relative="1" as="geometry">
            <mxPoint as="offset" />
          </mxGeometry>
        </mxCell>
        <mxCell id="GVWYBPbzkeyjMvykUmka-36" value="&lt;font style=&quot;vertical-align: inherit;&quot; dir=&quot;auto&quot;&gt;&lt;font style=&quot;vertical-align: inherit;&quot; dir=&quot;auto&quot;&gt;TEM&lt;/font&gt;&lt;/font&gt;" style="rhombus;whiteSpace=wrap;html=1;" vertex="1" parent="1">
          <mxGeometry x="-40.06999999999999" y="320" width="80" height="80" as="geometry" />
        </mxCell>
        <mxCell id="GVWYBPbzkeyjMvykUmka-37" value="&lt;font style=&quot;vertical-align: inherit;&quot; dir=&quot;auto&quot;&gt;&lt;font style=&quot;vertical-align: inherit;&quot; dir=&quot;auto&quot;&gt;&lt;font style=&quot;vertical-align: inherit;&quot; dir=&quot;auto&quot;&gt;&lt;font style=&quot;vertical-align: inherit;&quot; dir=&quot;auto&quot;&gt;DIRETOR&lt;/font&gt;&lt;/font&gt;&lt;/font&gt;&lt;/font&gt;" style="rounded=0;whiteSpace=wrap;html=1;" vertex="1" parent="1">
          <mxGeometry x="-290.07" y="340" width="120" height="60" as="geometry" />
        </mxCell>
        <mxCell id="GVWYBPbzkeyjMvykUmka-38" value="&lt;font style=&quot;vertical-align: inherit;&quot; dir=&quot;auto&quot;&gt;&lt;font style=&quot;vertical-align: inherit;&quot; dir=&quot;auto&quot;&gt;DEPARTAMENTO&lt;/font&gt;&lt;/font&gt;" style="rounded=1;whiteSpace=wrap;html=1;" vertex="1" parent="1">
          <mxGeometry x="149.93" y="340" width="120" height="60" as="geometry" />
        </mxCell>
        <mxCell id="GVWYBPbzkeyjMvykUmka-39" value="" style="endArrow=none;html=1;rounded=0;edgeStyle=orthogonalEdgeStyle;entryX=0;entryY=0.75;entryDx=0;entryDy=0;startArrow=oval;startFill=1;" edge="1" parent="1" target="GVWYBPbzkeyjMvykUmka-37">
          <mxGeometry width="50" height="50" relative="1" as="geometry">
            <mxPoint x="-350.07" y="481" as="sourcePoint" />
            <mxPoint x="-410.07" y="380" as="targetPoint" />
            <Array as="points">
              <mxPoint x="-350.07" y="482" />
              <mxPoint x="-409.07" y="482" />
              <mxPoint x="-409.07" y="385" />
            </Array>
          </mxGeometry>
        </mxCell>
        <mxCell id="GVWYBPbzkeyjMvykUmka-40" value="" style="endArrow=none;html=1;rounded=0;edgeStyle=orthogonalEdgeStyle;startArrow=oval;startFill=0;" edge="1" parent="1" target="GVWYBPbzkeyjMvykUmka-38">
          <mxGeometry width="50" height="50" relative="1" as="geometry">
            <mxPoint x="289.93" y="520" as="sourcePoint" />
            <mxPoint x="329.93" y="360" as="targetPoint" />
            <Array as="points">
              <mxPoint x="279.93" y="520" />
              <mxPoint x="279.93" y="521" />
              <mxPoint x="340.93" y="521" />
              <mxPoint x="340.93" y="370" />
            </Array>
          </mxGeometry>
        </mxCell>
        <mxCell id="GVWYBPbzkeyjMvykUmka-41" value="" style="endArrow=none;html=1;rounded=0;startArrow=oval;startFill=1;edgeStyle=orthogonalEdgeStyle;entryX=1;entryY=0.75;entryDx=0;entryDy=0;" edge="1" parent="1" target="GVWYBPbzkeyjMvykUmka-38">
          <mxGeometry width="50" height="50" relative="1" as="geometry">
            <mxPoint x="289.93" y="480" as="sourcePoint" />
            <mxPoint x="309.93" y="390" as="targetPoint" />
            <Array as="points">
              <mxPoint x="279.93" y="480" />
              <mxPoint x="279.93" y="481" />
              <mxPoint x="330.93" y="481" />
              <mxPoint x="330.93" y="385" />
            </Array>
          </mxGeometry>
        </mxCell>
        <mxCell id="GVWYBPbzkeyjMvykUmka-42" value="" style="endArrow=none;html=1;rounded=0;edgeStyle=orthogonalEdgeStyle;entryX=0;entryY=0;entryDx=0;entryDy=0;startArrow=none;startFill=0;" edge="1" parent="1" target="GVWYBPbzkeyjMvykUmka-37">
          <mxGeometry width="50" height="50" relative="1" as="geometry">
            <mxPoint x="-350.07" y="530" as="sourcePoint" />
            <mxPoint x="-451.07" y="330" as="targetPoint" />
            <Array as="points">
              <mxPoint x="-450.07" y="530" />
              <mxPoint x="-450.07" y="340" />
            </Array>
          </mxGeometry>
        </mxCell>
        <mxCell id="GVWYBPbzkeyjMvykUmka-43" value="" style="endArrow=none;html=1;rounded=0;edgeStyle=orthogonalEdgeStyle;entryX=0;entryY=0.25;entryDx=0;entryDy=0;startArrow=none;startFill=0;exitX=0;exitY=0.5;exitDx=0;exitDy=0;" edge="1" parent="1" source="GVWYBPbzkeyjMvykUmka-24" target="GVWYBPbzkeyjMvykUmka-37">
          <mxGeometry width="50" height="50" relative="1" as="geometry">
            <mxPoint x="-460.07" y="510" as="sourcePoint" />
            <mxPoint x="-410.07" y="360" as="targetPoint" />
            <Array as="points">
              <mxPoint x="-430.07" y="515" />
              <mxPoint x="-430.07" y="360" />
              <mxPoint x="-290.07" y="360" />
            </Array>
          </mxGeometry>
        </mxCell>
        <mxCell id="GVWYBPbzkeyjMvykUmka-44" value="" style="endArrow=none;html=1;rounded=0;edgeStyle=orthogonalEdgeStyle;startArrow=none;startFill=0;" edge="1" parent="1">
          <mxGeometry width="50" height="50" relative="1" as="geometry">
            <mxPoint x="289.93" y="540" as="sourcePoint" />
            <mxPoint x="269.93" y="390" as="targetPoint" />
            <Array as="points">
              <mxPoint x="279.93" y="540" />
              <mxPoint x="279.93" y="541" />
              <mxPoint x="340.93" y="541" />
              <mxPoint x="340.93" y="360" />
              <mxPoint x="269.93" y="360" />
            </Array>
          </mxGeometry>
        </mxCell>
        <mxCell id="GVWYBPbzkeyjMvykUmka-45" value="ExercÃ­cio 3" style="text;html=1;align=center;verticalAlign=middle;resizable=0;points=[];autosize=1;strokeColor=none;fillColor=none;" vertex="1" parent="1">
          <mxGeometry x="-44" y="750" width="80" height="30" as="geometry" />
        </mxCell>
        <mxCell id="GVWYBPbzkeyjMvykUmka-46" value="&lt;font style=&quot;vertical-align: inherit;&quot; dir=&quot;auto&quot;&gt;&lt;font style=&quot;vertical-align: inherit;&quot; dir=&quot;auto&quot;&gt;&lt;font style=&quot;vertical-align: inherit;&quot; dir=&quot;auto&quot;&gt;&lt;font style=&quot;vertical-align: inherit;&quot; dir=&quot;auto&quot;&gt;atributos&lt;/font&gt;&lt;/font&gt;&lt;span style=&quot;white-space: pre;&quot;&gt;&#x9;&lt;/span&gt;&lt;/font&gt;&lt;/font&gt;" style="swimlane;whiteSpace=wrap;html=1;" vertex="1" parent="1">
          <mxGeometry x="-355" y="922" width="140" height="150" as="geometry" />
        </mxCell>
        <mxCell id="GVWYBPbzkeyjMvykUmka-47" value="&lt;font style=&quot;vertical-align: inherit;&quot; dir=&quot;auto&quot;&gt;&lt;font style=&quot;vertical-align: inherit;&quot; dir=&quot;auto&quot;&gt;&lt;font style=&quot;vertical-align: inherit;&quot; dir=&quot;auto&quot;&gt;&lt;font style=&quot;vertical-align: inherit;&quot; dir=&quot;auto&quot;&gt;nome&lt;/font&gt;&lt;/font&gt;&lt;/font&gt;&lt;/font&gt;" style="text;html=1;align=center;verticalAlign=middle;resizable=0;points=[];autosize=1;strokeColor=none;fillColor=none;" vertex="1" parent="GVWYBPbzkeyjMvykUmka-46">
          <mxGeometry x="11" y="50" width="50" height="30" as="geometry" />
        </mxCell>
        <mxCell id="GVWYBPbzkeyjMvykUmka-48" value="id_autor" style="text;html=1;align=center;verticalAlign=middle;resizable=0;points=[];autosize=1;strokeColor=none;fillColor=none;" vertex="1" parent="GVWYBPbzkeyjMvykUmka-46">
          <mxGeometry x="9" y="30" width="70" height="30" as="geometry" />
        </mxCell>
        <mxCell id="GVWYBPbzkeyjMvykUmka-49" value="&lt;font style=&quot;vertical-align: inherit;&quot; dir=&quot;auto&quot;&gt;&lt;font style=&quot;vertical-align: inherit;&quot; dir=&quot;auto&quot;&gt;EndereÃ§o&lt;/font&gt;&lt;/font&gt;" style="text;html=1;align=center;verticalAlign=middle;resizable=0;points=[];autosize=1;strokeColor=none;fillColor=none;" vertex="1" parent="GVWYBPbzkeyjMvykUmka-46">
          <mxGeometry x="1" y="72" width="70" height="30" as="geometry" />
        </mxCell>
        <mxCell id="GVWYBPbzkeyjMvykUmka-50" value="&lt;font style=&quot;vertical-align: inherit;&quot; dir=&quot;auto&quot;&gt;&lt;font style=&quot;vertical-align: inherit;&quot; dir=&quot;auto&quot;&gt;&lt;font style=&quot;vertical-align: inherit;&quot; dir=&quot;auto&quot;&gt;&lt;font style=&quot;vertical-align: inherit;&quot; dir=&quot;auto&quot;&gt;atributos&lt;/font&gt;&lt;/font&gt;&lt;/font&gt;&lt;/font&gt;" style="swimlane;whiteSpace=wrap;html=1;" vertex="1" parent="1">
          <mxGeometry x="135" y="922" width="140" height="160" as="geometry" />
        </mxCell>
        <mxCell id="GVWYBPbzkeyjMvykUmka-51" value="&lt;font style=&quot;vertical-align: inherit;&quot; dir=&quot;auto&quot;&gt;&lt;font style=&quot;vertical-align: inherit;&quot; dir=&quot;auto&quot;&gt;id_livro&lt;/font&gt;&lt;/font&gt;" style="text;html=1;align=center;verticalAlign=middle;resizable=0;points=[];autosize=1;strokeColor=none;fillColor=none;" vertex="1" parent="GVWYBPbzkeyjMvykUmka-50">
          <mxGeometry x="5" y="30" width="60" height="30" as="geometry" />
        </mxCell>
        <mxCell id="GVWYBPbzkeyjMvykUmka-52" value="&lt;font style=&quot;vertical-align: inherit;&quot; dir=&quot;auto&quot;&gt;&lt;font style=&quot;vertical-align: inherit;&quot; dir=&quot;auto&quot;&gt;id_autor&lt;/font&gt;&lt;/font&gt;" style="text;html=1;align=center;verticalAlign=middle;resizable=0;points=[];autosize=1;strokeColor=none;fillColor=none;" vertex="1" parent="GVWYBPbzkeyjMvykUmka-50">
          <mxGeometry y="60" width="70" height="30" as="geometry" />
        </mxCell>
        <mxCell id="GVWYBPbzkeyjMvykUmka-53" value="&lt;font style=&quot;vertical-align: inherit;&quot; dir=&quot;auto&quot;&gt;&lt;font style=&quot;vertical-align: inherit;&quot; dir=&quot;auto&quot;&gt;tÃ­tulo&lt;/font&gt;&lt;/font&gt;" style="text;html=1;align=center;verticalAlign=middle;resizable=0;points=[];autosize=1;strokeColor=none;fillColor=none;" vertex="1" parent="GVWYBPbzkeyjMvykUmka-50">
          <mxGeometry y="85" width="50" height="30" as="geometry" />
        </mxCell>
        <mxCell id="GVWYBPbzkeyjMvykUmka-54" value="editora" style="text;html=1;align=center;verticalAlign=middle;resizable=0;points=[];autosize=1;strokeColor=none;fillColor=none;" vertex="1" parent="GVWYBPbzkeyjMvykUmka-50">
          <mxGeometry y="108" width="60" height="30" as="geometry" />
        </mxCell>
        <mxCell id="GVWYBPbzkeyjMvykUmka-55" value="preÃ§o" style="text;html=1;align=center;verticalAlign=middle;resizable=0;points=[];autosize=1;strokeColor=none;fillColor=none;" vertex="1" parent="GVWYBPbzkeyjMvykUmka-50">
          <mxGeometry x="5" y="130" width="50" height="30" as="geometry" />
        </mxCell>
        <mxCell id="GVWYBPbzkeyjMvykUmka-56" style="edgeStyle=orthogonalEdgeStyle;rounded=0;orthogonalLoop=1;jettySize=auto;html=1;" edge="1" parent="1" source="GVWYBPbzkeyjMvykUmka-60">
          <mxGeometry relative="1" as="geometry">
            <mxPoint x="-175" y="842" as="targetPoint" />
          </mxGeometry>
        </mxCell>
        <mxCell id="GVWYBPbzkeyjMvykUmka-57" value="N" style="edgeLabel;html=1;align=center;verticalAlign=middle;resizable=0;points=[];" vertex="1" connectable="0" parent="GVWYBPbzkeyjMvykUmka-56">
          <mxGeometry x="0.7227" y="-1" relative="1" as="geometry">
            <mxPoint x="-1" as="offset" />
          </mxGeometry>
        </mxCell>
        <mxCell id="GVWYBPbzkeyjMvykUmka-58" style="edgeStyle=orthogonalEdgeStyle;rounded=0;orthogonalLoop=1;jettySize=auto;html=1;exitX=1;exitY=0.5;exitDx=0;exitDy=0;" edge="1" parent="1" source="GVWYBPbzkeyjMvykUmka-60">
          <mxGeometry relative="1" as="geometry">
            <mxPoint x="145" y="842" as="targetPoint" />
          </mxGeometry>
        </mxCell>
        <mxCell id="GVWYBPbzkeyjMvykUmka-59" value="N" style="edgeLabel;html=1;align=center;verticalAlign=middle;resizable=0;points=[];" vertex="1" connectable="0" parent="GVWYBPbzkeyjMvykUmka-58">
          <mxGeometry x="0.6666" y="-2" relative="1" as="geometry">
            <mxPoint as="offset" />
          </mxGeometry>
        </mxCell>
        <mxCell id="GVWYBPbzkeyjMvykUmka-60" value="&lt;font style=&quot;vertical-align: inherit;&quot; dir=&quot;auto&quot;&gt;&lt;font style=&quot;vertical-align: inherit;&quot; dir=&quot;auto&quot;&gt;ESCREVER&lt;/font&gt;&lt;/font&gt;" style="rhombus;whiteSpace=wrap;html=1;" vertex="1" parent="1">
          <mxGeometry x="-45" y="802" width="80" height="80" as="geometry" />
        </mxCell>
        <mxCell id="GVWYBPbzkeyjMvykUmka-61" value="&lt;font style=&quot;vertical-align: inherit;&quot; dir=&quot;auto&quot;&gt;&lt;font style=&quot;vertical-align: inherit;&quot; dir=&quot;auto&quot;&gt;&lt;font style=&quot;vertical-align: inherit;&quot; dir=&quot;auto&quot;&gt;&lt;font style=&quot;vertical-align: inherit;&quot; dir=&quot;auto&quot;&gt;AUTOR&lt;/font&gt;&lt;/font&gt;&lt;/font&gt;&lt;/font&gt;" style="rounded=0;whiteSpace=wrap;html=1;" vertex="1" parent="1">
          <mxGeometry x="-295" y="822" width="120" height="60" as="geometry" />
        </mxCell>
        <mxCell id="GVWYBPbzkeyjMvykUmka-62" value="&lt;font style=&quot;vertical-align: inherit;&quot; dir=&quot;auto&quot;&gt;&lt;font style=&quot;vertical-align: inherit;&quot; dir=&quot;auto&quot;&gt;LIVROS&lt;/font&gt;&lt;/font&gt;" style="rounded=1;whiteSpace=wrap;html=1;" vertex="1" parent="1">
          <mxGeometry x="145" y="822" width="120" height="60" as="geometry" />
        </mxCell>
        <mxCell id="GVWYBPbzkeyjMvykUmka-63" value="" style="endArrow=none;html=1;rounded=0;edgeStyle=orthogonalEdgeStyle;entryX=0;entryY=0.75;entryDx=0;entryDy=0;startArrow=oval;startFill=1;" edge="1" parent="1" target="GVWYBPbzkeyjMvykUmka-61">
          <mxGeometry width="50" height="50" relative="1" as="geometry">
            <mxPoint x="-355" y="963" as="sourcePoint" />
            <mxPoint x="-415" y="862" as="targetPoint" />
            <Array as="points">
              <mxPoint x="-355" y="964" />
              <mxPoint x="-414" y="964" />
              <mxPoint x="-414" y="867" />
            </Array>
          </mxGeometry>
        </mxCell>
        <mxCell id="GVWYBPbzkeyjMvykUmka-64" value="" style="endArrow=none;html=1;rounded=0;edgeStyle=orthogonalEdgeStyle;startArrow=oval;startFill=0;" edge="1" parent="1" target="GVWYBPbzkeyjMvykUmka-62">
          <mxGeometry width="50" height="50" relative="1" as="geometry">
            <mxPoint x="285" y="1002" as="sourcePoint" />
            <mxPoint x="325" y="842" as="targetPoint" />
            <Array as="points">
              <mxPoint x="275" y="1002" />
              <mxPoint x="275" y="1003" />
              <mxPoint x="326" y="1003" />
              <mxPoint x="326" y="852" />
            </Array>
          </mxGeometry>
        </mxCell>
        <mxCell id="GVWYBPbzkeyjMvykUmka-65" value="" style="endArrow=none;html=1;rounded=0;startArrow=oval;startFill=1;edgeStyle=orthogonalEdgeStyle;entryX=1;entryY=0.75;entryDx=0;entryDy=0;" edge="1" parent="1" target="GVWYBPbzkeyjMvykUmka-62">
          <mxGeometry width="50" height="50" relative="1" as="geometry">
            <mxPoint x="285" y="962" as="sourcePoint" />
            <mxPoint x="305" y="872" as="targetPoint" />
            <Array as="points">
              <mxPoint x="275" y="962" />
              <mxPoint x="275" y="963" />
              <mxPoint x="316" y="963" />
              <mxPoint x="316" y="867" />
            </Array>
          </mxGeometry>
        </mxCell>
        <mxCell id="GVWYBPbzkeyjMvykUmka-66" value="" style="endArrow=none;html=1;rounded=0;edgeStyle=orthogonalEdgeStyle;entryX=0;entryY=0;entryDx=0;entryDy=0;startArrow=none;startFill=0;" edge="1" parent="1" target="GVWYBPbzkeyjMvykUmka-61">
          <mxGeometry width="50" height="50" relative="1" as="geometry">
            <mxPoint x="-355" y="1012" as="sourcePoint" />
            <mxPoint x="-456" y="812" as="targetPoint" />
            <Array as="points">
              <mxPoint x="-455" y="1012" />
              <mxPoint x="-455" y="822" />
            </Array>
          </mxGeometry>
        </mxCell>
        <mxCell id="GVWYBPbzkeyjMvykUmka-67" value="" style="endArrow=none;html=1;rounded=0;edgeStyle=orthogonalEdgeStyle;entryX=0;entryY=0.25;entryDx=0;entryDy=0;startArrow=none;startFill=0;exitX=0;exitY=0.5;exitDx=0;exitDy=0;" edge="1" parent="1" source="GVWYBPbzkeyjMvykUmka-46" target="GVWYBPbzkeyjMvykUmka-61">
          <mxGeometry width="50" height="50" relative="1" as="geometry">
            <mxPoint x="-465" y="992" as="sourcePoint" />
            <mxPoint x="-415" y="842" as="targetPoint" />
            <Array as="points">
              <mxPoint x="-435" y="997" />
              <mxPoint x="-435" y="842" />
              <mxPoint x="-295" y="842" />
            </Array>
          </mxGeometry>
        </mxCell>
        <mxCell id="GVWYBPbzkeyjMvykUmka-68" value="" style="endArrow=none;html=1;rounded=0;edgeStyle=orthogonalEdgeStyle;startArrow=none;startFill=0;" edge="1" parent="1">
          <mxGeometry width="50" height="50" relative="1" as="geometry">
            <mxPoint x="275" y="1023" as="sourcePoint" />
            <mxPoint x="265" y="872" as="targetPoint" />
            <Array as="points">
              <mxPoint x="275" y="1022" />
              <mxPoint x="275" y="1023" />
              <mxPoint x="336" y="1023" />
              <mxPoint x="336" y="842" />
              <mxPoint x="265" y="842" />
            </Array>
          </mxGeometry>
        </mxCell>
        <mxCell id="GVWYBPbzkeyjMvykUmka-69" value="" style="endArrow=none;html=1;rounded=0;edgeStyle=orthogonalEdgeStyle;startArrow=none;startFill=0;entryX=0.97;entryY=0.14;entryDx=0;entryDy=0;entryPerimeter=0;" edge="1" parent="1">
          <mxGeometry width="50" height="50" relative="1" as="geometry">
            <mxPoint x="277" y="1051" as="sourcePoint" />
            <mxPoint x="264.4000000000001" y="830.4000000000001" as="targetPoint" />
            <Array as="points">
              <mxPoint x="277" y="1050" />
              <mxPoint x="276" y="1050" />
              <mxPoint x="276" y="1051" />
              <mxPoint x="346" y="1051" />
              <mxPoint x="346" y="830" />
            </Array>
          </mxGeometry>
        </mxCell>
        <mxCell id="GVWYBPbzkeyjMvykUmka-70" value="" style="endArrow=none;html=1;rounded=0;edgeStyle=orthogonalEdgeStyle;startArrow=none;startFill=0;" edge="1" parent="1">
          <mxGeometry width="50" height="50" relative="1" as="geometry">
            <mxPoint x="274" y="1070" as="sourcePoint" />
            <mxPoint x="256" y="820" as="targetPoint" />
            <Array as="points">
              <mxPoint x="286" y="1070" />
              <mxPoint x="356" y="1070" />
              <mxPoint x="356" y="822" />
            </Array>
          </mxGeometry>
        </mxCell>
        <mxCell id="GVWYBPbzkeyjMvykUmka-71" value="ExercÃ­cio 4" style="text;html=1;align=center;verticalAlign=middle;resizable=0;points=[];autosize=1;strokeColor=none;fillColor=none;" vertex="1" parent="1">
          <mxGeometry x="-44.06999999999999" y="1130" width="80" height="30" as="geometry" />
        </mxCell>
        <mxCell id="GVWYBPbzkeyjMvykUmka-72" value="&lt;font style=&quot;vertical-align: inherit;&quot; dir=&quot;auto&quot;&gt;&lt;font style=&quot;vertical-align: inherit;&quot; dir=&quot;auto&quot;&gt;&lt;font style=&quot;vertical-align: inherit;&quot; dir=&quot;auto&quot;&gt;&lt;font style=&quot;vertical-align: inherit;&quot; dir=&quot;auto&quot;&gt;atributos&lt;/font&gt;&lt;/font&gt;&lt;span style=&quot;white-space: pre;&quot;&gt;&#x9;&lt;/span&gt;&lt;/font&gt;&lt;/font&gt;" style="swimlane;whiteSpace=wrap;html=1;" vertex="1" parent="1">
          <mxGeometry x="-355.07" y="1302" width="140" height="150" as="geometry" />
        </mxCell>
        <mxCell id="GVWYBPbzkeyjMvykUmka-73" value="&lt;font style=&quot;vertical-align: inherit;&quot; dir=&quot;auto&quot;&gt;&lt;font style=&quot;vertical-align: inherit;&quot; dir=&quot;auto&quot;&gt;&lt;font style=&quot;vertical-align: inherit;&quot; dir=&quot;auto&quot;&gt;&lt;font style=&quot;vertical-align: inherit;&quot; dir=&quot;auto&quot;&gt;nome&lt;/font&gt;&lt;/font&gt;&lt;/font&gt;&lt;/font&gt;" style="text;html=1;align=center;verticalAlign=middle;resizable=0;points=[];autosize=1;strokeColor=none;fillColor=none;" vertex="1" parent="GVWYBPbzkeyjMvykUmka-72">
          <mxGeometry x="11" y="50" width="50" height="30" as="geometry" />
        </mxCell>
        <mxCell id="GVWYBPbzkeyjMvykUmka-74" value="id_jogador" style="text;html=1;align=center;verticalAlign=middle;resizable=0;points=[];autosize=1;strokeColor=none;fillColor=none;" vertex="1" parent="GVWYBPbzkeyjMvykUmka-72">
          <mxGeometry x="4" y="30" width="80" height="30" as="geometry" />
        </mxCell>
        <mxCell id="GVWYBPbzkeyjMvykUmka-75" value="&lt;font style=&quot;vertical-align: inherit;&quot; dir=&quot;auto&quot;&gt;&lt;font style=&quot;vertical-align: inherit;&quot; dir=&quot;auto&quot;&gt;posiÃ§Ã£o&lt;/font&gt;&lt;/font&gt;" style="text;html=1;align=center;verticalAlign=middle;resizable=0;points=[];autosize=1;strokeColor=none;fillColor=none;" vertex="1" parent="GVWYBPbzkeyjMvykUmka-72">
          <mxGeometry x="6" y="72" width="60" height="30" as="geometry" />
        </mxCell>
        <mxCell id="GVWYBPbzkeyjMvykUmka-76" value="&lt;font style=&quot;vertical-align: inherit;&quot; dir=&quot;auto&quot;&gt;&lt;font style=&quot;vertical-align: inherit;&quot; dir=&quot;auto&quot;&gt;&lt;font style=&quot;vertical-align: inherit;&quot; dir=&quot;auto&quot;&gt;&lt;font style=&quot;vertical-align: inherit;&quot; dir=&quot;auto&quot;&gt;atributos&lt;/font&gt;&lt;/font&gt;&lt;/font&gt;&lt;/font&gt;" style="swimlane;whiteSpace=wrap;html=1;" vertex="1" parent="1">
          <mxGeometry x="134.93" y="1302" width="140" height="160" as="geometry" />
        </mxCell>
        <mxCell id="GVWYBPbzkeyjMvykUmka-77" value="&lt;font style=&quot;vertical-align: inherit;&quot; dir=&quot;auto&quot;&gt;&lt;font style=&quot;vertical-align: inherit;&quot; dir=&quot;auto&quot;&gt;id_equipe&lt;/font&gt;&lt;/font&gt;" style="text;html=1;align=center;verticalAlign=middle;resizable=0;points=[];autosize=1;strokeColor=none;fillColor=none;" vertex="1" parent="GVWYBPbzkeyjMvykUmka-76">
          <mxGeometry x="-5" y="30" width="80" height="30" as="geometry" />
        </mxCell>
        <mxCell id="GVWYBPbzkeyjMvykUmka-78" value="&lt;font style=&quot;vertical-align: inherit;&quot; dir=&quot;auto&quot;&gt;&lt;font style=&quot;vertical-align: inherit;&quot; dir=&quot;auto&quot;&gt;id_jogador&lt;/font&gt;&lt;/font&gt;" style="text;html=1;align=center;verticalAlign=middle;resizable=0;points=[];autosize=1;strokeColor=none;fillColor=none;" vertex="1" parent="GVWYBPbzkeyjMvykUmka-76">
          <mxGeometry x="-5" y="60" width="80" height="30" as="geometry" />
        </mxCell>
        <mxCell id="GVWYBPbzkeyjMvykUmka-79" value="&lt;font style=&quot;vertical-align: inherit;&quot; dir=&quot;auto&quot;&gt;&lt;font style=&quot;vertical-align: inherit;&quot; dir=&quot;auto&quot;&gt;nome&lt;/font&gt;&lt;/font&gt;" style="text;html=1;align=center;verticalAlign=middle;resizable=0;points=[];autosize=1;strokeColor=none;fillColor=none;" vertex="1" parent="GVWYBPbzkeyjMvykUmka-76">
          <mxGeometry y="85" width="50" height="30" as="geometry" />
        </mxCell>
        <mxCell id="GVWYBPbzkeyjMvykUmka-80" value="divisÃ£o" style="text;html=1;align=center;verticalAlign=middle;resizable=0;points=[];autosize=1;strokeColor=none;fillColor=none;" vertex="1" parent="GVWYBPbzkeyjMvykUmka-76">
          <mxGeometry y="108" width="60" height="30" as="geometry" />
        </mxCell>
        <mxCell id="GVWYBPbzkeyjMvykUmka-81" value="modalidade" style="text;html=1;align=center;verticalAlign=middle;resizable=0;points=[];autosize=1;strokeColor=none;fillColor=none;" vertex="1" parent="GVWYBPbzkeyjMvykUmka-76">
          <mxGeometry x="-5" y="130" width="90" height="30" as="geometry" />
        </mxCell>
        <mxCell id="GVWYBPbzkeyjMvykUmka-82" style="edgeStyle=orthogonalEdgeStyle;rounded=0;orthogonalLoop=1;jettySize=auto;html=1;" edge="1" parent="1" source="GVWYBPbzkeyjMvykUmka-86">
          <mxGeometry relative="1" as="geometry">
            <mxPoint x="-175.07" y="1222" as="targetPoint" />
          </mxGeometry>
        </mxCell>
        <mxCell id="GVWYBPbzkeyjMvykUmka-83" value="1" style="edgeLabel;html=1;align=center;verticalAlign=middle;resizable=0;points=[];" vertex="1" connectable="0" parent="GVWYBPbzkeyjMvykUmka-82">
          <mxGeometry x="0.7227" y="-1" relative="1" as="geometry">
            <mxPoint x="-1" as="offset" />
          </mxGeometry>
        </mxCell>
        <mxCell id="GVWYBPbzkeyjMvykUmka-84" style="edgeStyle=orthogonalEdgeStyle;rounded=0;orthogonalLoop=1;jettySize=auto;html=1;exitX=1;exitY=0.5;exitDx=0;exitDy=0;" edge="1" parent="1" source="GVWYBPbzkeyjMvykUmka-86">
          <mxGeometry relative="1" as="geometry">
            <mxPoint x="144.93" y="1222" as="targetPoint" />
          </mxGeometry>
        </mxCell>
        <mxCell id="GVWYBPbzkeyjMvykUmka-85" value="N" style="edgeLabel;html=1;align=center;verticalAlign=middle;resizable=0;points=[];" vertex="1" connectable="0" parent="GVWYBPbzkeyjMvykUmka-84">
          <mxGeometry x="0.6666" y="-2" relative="1" as="geometry">
            <mxPoint as="offset" />
          </mxGeometry>
        </mxCell>
        <mxCell id="GVWYBPbzkeyjMvykUmka-86" value="&lt;font style=&quot;vertical-align: inherit;&quot; dir=&quot;auto&quot;&gt;&lt;font style=&quot;vertical-align: inherit;&quot; dir=&quot;auto&quot;&gt;TEM&lt;/font&gt;&lt;/font&gt;" style="rhombus;whiteSpace=wrap;html=1;" vertex="1" parent="1">
          <mxGeometry x="-45.06999999999999" y="1182" width="80" height="80" as="geometry" />
        </mxCell>
        <mxCell id="GVWYBPbzkeyjMvykUmka-87" value="JOGADOR" style="rounded=0;whiteSpace=wrap;html=1;" vertex="1" parent="1">
          <mxGeometry x="-295.07" y="1202" width="120" height="60" as="geometry" />
        </mxCell>
        <mxCell id="GVWYBPbzkeyjMvykUmka-88" value="&lt;font style=&quot;vertical-align: inherit;&quot; dir=&quot;auto&quot;&gt;&lt;font style=&quot;vertical-align: inherit;&quot; dir=&quot;auto&quot;&gt;EQUIPE&lt;/font&gt;&lt;/font&gt;" style="rounded=1;whiteSpace=wrap;html=1;" vertex="1" parent="1">
          <mxGeometry x="144.93" y="1202" width="120" height="60" as="geometry" />
        </mxCell>
        <mxCell id="GVWYBPbzkeyjMvykUmka-89" value="" style="endArrow=none;html=1;rounded=0;edgeStyle=orthogonalEdgeStyle;entryX=0;entryY=0.75;entryDx=0;entryDy=0;startArrow=oval;startFill=1;" edge="1" parent="1" target="GVWYBPbzkeyjMvykUmka-87">
          <mxGeometry width="50" height="50" relative="1" as="geometry">
            <mxPoint x="-355.07" y="1343" as="sourcePoint" />
            <mxPoint x="-415.07" y="1242" as="targetPoint" />
            <Array as="points">
              <mxPoint x="-355.07" y="1344" />
              <mxPoint x="-414.07" y="1344" />
              <mxPoint x="-414.07" y="1247" />
            </Array>
          </mxGeometry>
        </mxCell>
        <mxCell id="GVWYBPbzkeyjMvykUmka-90" value="" style="endArrow=none;html=1;rounded=0;edgeStyle=orthogonalEdgeStyle;startArrow=oval;startFill=0;" edge="1" parent="1" target="GVWYBPbzkeyjMvykUmka-88">
          <mxGeometry width="50" height="50" relative="1" as="geometry">
            <mxPoint x="284.93" y="1382" as="sourcePoint" />
            <mxPoint x="324.93" y="1222" as="targetPoint" />
            <Array as="points">
              <mxPoint x="274.93" y="1382" />
              <mxPoint x="274.93" y="1383" />
              <mxPoint x="325.93" y="1383" />
              <mxPoint x="325.93" y="1232" />
            </Array>
          </mxGeometry>
        </mxCell>
        <mxCell id="GVWYBPbzkeyjMvykUmka-91" value="" style="endArrow=none;html=1;rounded=0;startArrow=oval;startFill=1;edgeStyle=orthogonalEdgeStyle;entryX=1;entryY=0.75;entryDx=0;entryDy=0;" edge="1" parent="1" target="GVWYBPbzkeyjMvykUmka-88">
          <mxGeometry width="50" height="50" relative="1" as="geometry">
            <mxPoint x="284.93" y="1342" as="sourcePoint" />
            <mxPoint x="304.93" y="1252" as="targetPoint" />
            <Array as="points">
              <mxPoint x="274.93" y="1342" />
              <mxPoint x="274.93" y="1343" />
              <mxPoint x="315.93" y="1343" />
              <mxPoint x="315.93" y="1247" />
            </Array>
          </mxGeometry>
        </mxCell>
        <mxCell id="GVWYBPbzkeyjMvykUmka-92" value="" style="endArrow=none;html=1;rounded=0;edgeStyle=orthogonalEdgeStyle;entryX=0;entryY=0;entryDx=0;entryDy=0;startArrow=none;startFill=0;" edge="1" parent="1" target="GVWYBPbzkeyjMvykUmka-87">
          <mxGeometry width="50" height="50" relative="1" as="geometry">
            <mxPoint x="-355.07" y="1392" as="sourcePoint" />
            <mxPoint x="-456.07" y="1192" as="targetPoint" />
            <Array as="points">
              <mxPoint x="-455.07" y="1392" />
              <mxPoint x="-455.07" y="1202" />
            </Array>
          </mxGeometry>
        </mxCell>
        <mxCell id="GVWYBPbzkeyjMvykUmka-93" value="" style="endArrow=none;html=1;rounded=0;edgeStyle=orthogonalEdgeStyle;entryX=0;entryY=0.25;entryDx=0;entryDy=0;startArrow=none;startFill=0;exitX=0;exitY=0.5;exitDx=0;exitDy=0;" edge="1" parent="1" source="GVWYBPbzkeyjMvykUmka-72" target="GVWYBPbzkeyjMvykUmka-87">
          <mxGeometry width="50" height="50" relative="1" as="geometry">
            <mxPoint x="-465.07" y="1372" as="sourcePoint" />
            <mxPoint x="-415.07" y="1222" as="targetPoint" />
            <Array as="points">
              <mxPoint x="-435.07" y="1377" />
              <mxPoint x="-435.07" y="1222" />
              <mxPoint x="-295.07" y="1222" />
            </Array>
          </mxGeometry>
        </mxCell>
        <mxCell id="GVWYBPbzkeyjMvykUmka-94" value="" style="endArrow=none;html=1;rounded=0;edgeStyle=orthogonalEdgeStyle;startArrow=none;startFill=0;" edge="1" parent="1">
          <mxGeometry width="50" height="50" relative="1" as="geometry">
            <mxPoint x="274.93" y="1403" as="sourcePoint" />
            <mxPoint x="264.93" y="1252" as="targetPoint" />
            <Array as="points">
              <mxPoint x="274.93" y="1402" />
              <mxPoint x="274.93" y="1403" />
              <mxPoint x="335.93" y="1403" />
              <mxPoint x="335.93" y="1222" />
              <mxPoint x="264.93" y="1222" />
            </Array>
          </mxGeometry>
        </mxCell>
        <mxCell id="GVWYBPbzkeyjMvykUmka-95" value="" style="endArrow=none;html=1;rounded=0;edgeStyle=orthogonalEdgeStyle;startArrow=none;startFill=0;entryX=0.97;entryY=0.14;entryDx=0;entryDy=0;entryPerimeter=0;" edge="1" parent="1">
          <mxGeometry width="50" height="50" relative="1" as="geometry">
            <mxPoint x="276.93" y="1431" as="sourcePoint" />
            <mxPoint x="264.3300000000001" y="1210.4" as="targetPoint" />
            <Array as="points">
              <mxPoint x="276.93" y="1430" />
              <mxPoint x="275.93" y="1430" />
              <mxPoint x="275.93" y="1431" />
              <mxPoint x="345.93" y="1431" />
              <mxPoint x="345.93" y="1210" />
            </Array>
          </mxGeometry>
        </mxCell>
        <mxCell id="GVWYBPbzkeyjMvykUmka-96" value="" style="endArrow=none;html=1;rounded=0;edgeStyle=orthogonalEdgeStyle;startArrow=none;startFill=0;" edge="1" parent="1">
          <mxGeometry width="50" height="50" relative="1" as="geometry">
            <mxPoint x="273.93" y="1450" as="sourcePoint" />
            <mxPoint x="255.93" y="1200" as="targetPoint" />
            <Array as="points">
              <mxPoint x="285.93" y="1450" />
              <mxPoint x="355.93" y="1450" />
              <mxPoint x="355.93" y="1202" />
            </Array>
          </mxGeometry>
        </mxCell>
        <mxCell id="GVWYBPbzkeyjMvykUmka-97" value="ExercÃ­cio 5" style="text;html=1;align=center;verticalAlign=middle;resizable=0;points=[];autosize=1;strokeColor=none;fillColor=none;" vertex="1" parent="1">
          <mxGeometry x="-55.139999999999986" y="1630" width="80" height="30" as="geometry" />
        </mxCell>
        <mxCell id="GVWYBPbzkeyjMvykUmka-98" value="&lt;font style=&quot;vertical-align: inherit;&quot; dir=&quot;auto&quot;&gt;&lt;font style=&quot;vertical-align: inherit;&quot; dir=&quot;auto&quot;&gt;&lt;font style=&quot;vertical-align: inherit;&quot; dir=&quot;auto&quot;&gt;&lt;font style=&quot;vertical-align: inherit;&quot; dir=&quot;auto&quot;&gt;atributos&lt;/font&gt;&lt;/font&gt;&lt;span style=&quot;white-space: pre;&quot;&gt;&#x9;&lt;/span&gt;&lt;/font&gt;&lt;/font&gt;" style="swimlane;whiteSpace=wrap;html=1;" vertex="1" parent="1">
          <mxGeometry x="-355.07" y="1842" width="140" height="150" as="geometry" />
        </mxCell>
        <mxCell id="GVWYBPbzkeyjMvykUmka-99" value="&lt;font style=&quot;vertical-align: inherit;&quot; dir=&quot;auto&quot;&gt;&lt;font style=&quot;vertical-align: inherit;&quot; dir=&quot;auto&quot;&gt;&lt;font style=&quot;vertical-align: inherit;&quot; dir=&quot;auto&quot;&gt;&lt;font style=&quot;vertical-align: inherit;&quot; dir=&quot;auto&quot;&gt;nome&lt;/font&gt;&lt;/font&gt;&lt;/font&gt;&lt;/font&gt;" style="text;html=1;align=center;verticalAlign=middle;resizable=0;points=[];autosize=1;strokeColor=none;fillColor=none;" vertex="1" parent="GVWYBPbzkeyjMvykUmka-98">
          <mxGeometry x="11" y="50" width="50" height="30" as="geometry" />
        </mxCell>
        <mxCell id="GVWYBPbzkeyjMvykUmka-100" value="id_cliente" style="text;html=1;align=center;verticalAlign=middle;resizable=0;points=[];autosize=1;strokeColor=none;fillColor=none;" vertex="1" parent="GVWYBPbzkeyjMvykUmka-98">
          <mxGeometry x="9" y="30" width="70" height="30" as="geometry" />
        </mxCell>
        <mxCell id="GVWYBPbzkeyjMvykUmka-101" value="&lt;font style=&quot;vertical-align: inherit;&quot; dir=&quot;auto&quot;&gt;&lt;font style=&quot;vertical-align: inherit;&quot; dir=&quot;auto&quot;&gt;&lt;font style=&quot;vertical-align: inherit;&quot; dir=&quot;auto&quot;&gt;&lt;font style=&quot;vertical-align: inherit;&quot; dir=&quot;auto&quot;&gt;atributos&lt;/font&gt;&lt;/font&gt;&lt;/font&gt;&lt;/font&gt;" style="swimlane;whiteSpace=wrap;html=1;" vertex="1" parent="1">
          <mxGeometry x="134.93" y="1842" width="140" height="160" as="geometry" />
        </mxCell>
        <mxCell id="GVWYBPbzkeyjMvykUmka-102" value="&lt;font style=&quot;vertical-align: inherit;&quot; dir=&quot;auto&quot;&gt;&lt;font style=&quot;vertical-align: inherit;&quot; dir=&quot;auto&quot;&gt;id_produto&lt;/font&gt;&lt;/font&gt;" style="text;html=1;align=center;verticalAlign=middle;resizable=0;points=[];autosize=1;strokeColor=none;fillColor=none;" vertex="1" parent="GVWYBPbzkeyjMvykUmka-101">
          <mxGeometry x="-5" y="30" width="80" height="30" as="geometry" />
        </mxCell>
        <mxCell id="GVWYBPbzkeyjMvykUmka-103" value="&lt;font style=&quot;vertical-align: inherit;&quot; dir=&quot;auto&quot;&gt;&lt;font style=&quot;vertical-align: inherit;&quot; dir=&quot;auto&quot;&gt;id_cliente&lt;/font&gt;&lt;/font&gt;" style="text;html=1;align=center;verticalAlign=middle;resizable=0;points=[];autosize=1;strokeColor=none;fillColor=none;" vertex="1" parent="GVWYBPbzkeyjMvykUmka-101">
          <mxGeometry y="60" width="70" height="30" as="geometry" />
        </mxCell>
        <mxCell id="GVWYBPbzkeyjMvykUmka-104" value="&lt;font style=&quot;vertical-align: inherit;&quot; dir=&quot;auto&quot;&gt;&lt;font style=&quot;vertical-align: inherit;&quot; dir=&quot;auto&quot;&gt;nome&lt;/font&gt;&lt;/font&gt;" style="text;html=1;align=center;verticalAlign=middle;resizable=0;points=[];autosize=1;strokeColor=none;fillColor=none;" vertex="1" parent="GVWYBPbzkeyjMvykUmka-101">
          <mxGeometry y="85" width="50" height="30" as="geometry" />
        </mxCell>
        <mxCell id="GVWYBPbzkeyjMvykUmka-105" value="preÃ§o" style="text;html=1;align=center;verticalAlign=middle;resizable=0;points=[];autosize=1;strokeColor=none;fillColor=none;" vertex="1" parent="GVWYBPbzkeyjMvykUmka-101">
          <mxGeometry x="5" y="108" width="50" height="30" as="geometry" />
        </mxCell>
        <mxCell id="GVWYBPbzkeyjMvykUmka-106" style="edgeStyle=orthogonalEdgeStyle;rounded=0;orthogonalLoop=1;jettySize=auto;html=1;" edge="1" parent="1" source="GVWYBPbzkeyjMvykUmka-110">
          <mxGeometry relative="1" as="geometry">
            <mxPoint x="-175.07" y="1762" as="targetPoint" />
          </mxGeometry>
        </mxCell>
        <mxCell id="GVWYBPbzkeyjMvykUmka-107" value="N" style="edgeLabel;html=1;align=center;verticalAlign=middle;resizable=0;points=[];" vertex="1" connectable="0" parent="GVWYBPbzkeyjMvykUmka-106">
          <mxGeometry x="0.7227" y="-1" relative="1" as="geometry">
            <mxPoint x="-1" as="offset" />
          </mxGeometry>
        </mxCell>
        <mxCell id="GVWYBPbzkeyjMvykUmka-108" style="edgeStyle=orthogonalEdgeStyle;rounded=0;orthogonalLoop=1;jettySize=auto;html=1;exitX=1;exitY=0.5;exitDx=0;exitDy=0;" edge="1" parent="1" source="GVWYBPbzkeyjMvykUmka-110">
          <mxGeometry relative="1" as="geometry">
            <mxPoint x="144.93" y="1762" as="targetPoint" />
          </mxGeometry>
        </mxCell>
        <mxCell id="GVWYBPbzkeyjMvykUmka-109" value="N" style="edgeLabel;html=1;align=center;verticalAlign=middle;resizable=0;points=[];" vertex="1" connectable="0" parent="GVWYBPbzkeyjMvykUmka-108">
          <mxGeometry x="0.6666" y="-2" relative="1" as="geometry">
            <mxPoint as="offset" />
          </mxGeometry>
        </mxCell>
        <mxCell id="GVWYBPbzkeyjMvykUmka-110" value="COMPRA" style="rhombus;whiteSpace=wrap;html=1;" vertex="1" parent="1">
          <mxGeometry x="-45.06999999999999" y="1722" width="80" height="80" as="geometry" />
        </mxCell>
        <mxCell id="GVWYBPbzkeyjMvykUmka-111" value="CLIENTE" style="rounded=0;whiteSpace=wrap;html=1;" vertex="1" parent="1">
          <mxGeometry x="-295.07" y="1742" width="120" height="60" as="geometry" />
        </mxCell>
        <mxCell id="GVWYBPbzkeyjMvykUmka-112" value="&lt;font style=&quot;vertical-align: inherit;&quot; dir=&quot;auto&quot;&gt;&lt;font style=&quot;vertical-align: inherit;&quot; dir=&quot;auto&quot;&gt;PRODUTO&lt;/font&gt;&lt;/font&gt;" style="rounded=1;whiteSpace=wrap;html=1;" vertex="1" parent="1">
          <mxGeometry x="144.93" y="1742" width="120" height="60" as="geometry" />
        </mxCell>
        <mxCell id="GVWYBPbzkeyjMvykUmka-113" value="" style="endArrow=none;html=1;rounded=0;edgeStyle=orthogonalEdgeStyle;entryX=0;entryY=0.75;entryDx=0;entryDy=0;startArrow=oval;startFill=1;" edge="1" parent="1" target="GVWYBPbzkeyjMvykUmka-111">
          <mxGeometry width="50" height="50" relative="1" as="geometry">
            <mxPoint x="-355.07" y="1883" as="sourcePoint" />
            <mxPoint x="-415.07" y="1782" as="targetPoint" />
            <Array as="points">
              <mxPoint x="-355.07" y="1884" />
              <mxPoint x="-414.07" y="1884" />
              <mxPoint x="-414.07" y="1787" />
            </Array>
          </mxGeometry>
        </mxCell>
        <mxCell id="GVWYBPbzkeyjMvykUmka-114" value="" style="endArrow=none;html=1;rounded=0;edgeStyle=orthogonalEdgeStyle;startArrow=oval;startFill=0;" edge="1" parent="1" target="GVWYBPbzkeyjMvykUmka-112">
          <mxGeometry width="50" height="50" relative="1" as="geometry">
            <mxPoint x="284.93" y="1922" as="sourcePoint" />
            <mxPoint x="324.93" y="1762" as="targetPoint" />
            <Array as="points">
              <mxPoint x="274.93" y="1922" />
              <mxPoint x="274.93" y="1923" />
              <mxPoint x="325.93" y="1923" />
              <mxPoint x="325.93" y="1772" />
            </Array>
          </mxGeometry>
        </mxCell>
        <mxCell id="GVWYBPbzkeyjMvykUmka-115" value="" style="endArrow=none;html=1;rounded=0;startArrow=oval;startFill=1;edgeStyle=orthogonalEdgeStyle;entryX=1;entryY=0.75;entryDx=0;entryDy=0;" edge="1" parent="1" target="GVWYBPbzkeyjMvykUmka-112">
          <mxGeometry width="50" height="50" relative="1" as="geometry">
            <mxPoint x="284.93" y="1882" as="sourcePoint" />
            <mxPoint x="304.93" y="1792" as="targetPoint" />
            <Array as="points">
              <mxPoint x="274.93" y="1882" />
              <mxPoint x="274.93" y="1883" />
              <mxPoint x="315.93" y="1883" />
              <mxPoint x="315.93" y="1787" />
            </Array>
          </mxGeometry>
        </mxCell>
        <mxCell id="GVWYBPbzkeyjMvykUmka-116" value="" style="endArrow=none;html=1;rounded=0;edgeStyle=orthogonalEdgeStyle;entryX=0;entryY=0.25;entryDx=0;entryDy=0;startArrow=none;startFill=0;exitX=0;exitY=0.5;exitDx=0;exitDy=0;" edge="1" parent="1" source="GVWYBPbzkeyjMvykUmka-98" target="GVWYBPbzkeyjMvykUmka-111">
          <mxGeometry width="50" height="50" relative="1" as="geometry">
            <mxPoint x="-465.07" y="1912" as="sourcePoint" />
            <mxPoint x="-415.07" y="1762" as="targetPoint" />
            <Array as="points">
              <mxPoint x="-435.07" y="1917" />
              <mxPoint x="-435.07" y="1762" />
              <mxPoint x="-295.07" y="1762" />
            </Array>
          </mxGeometry>
        </mxCell>
        <mxCell id="GVWYBPbzkeyjMvykUmka-117" value="" style="endArrow=none;html=1;rounded=0;edgeStyle=orthogonalEdgeStyle;startArrow=none;startFill=0;" edge="1" parent="1">
          <mxGeometry width="50" height="50" relative="1" as="geometry">
            <mxPoint x="274.93" y="1943" as="sourcePoint" />
            <mxPoint x="264.93" y="1792" as="targetPoint" />
            <Array as="points">
              <mxPoint x="274.93" y="1942" />
              <mxPoint x="274.93" y="1943" />
              <mxPoint x="335.93" y="1943" />
              <mxPoint x="335.93" y="1762" />
              <mxPoint x="264.93" y="1762" />
            </Array>
          </mxGeometry>
        </mxCell>
        <mxCell id="GVWYBPbzkeyjMvykUmka-118" value="" style="endArrow=none;html=1;rounded=0;edgeStyle=orthogonalEdgeStyle;startArrow=none;startFill=0;entryX=0.97;entryY=0.14;entryDx=0;entryDy=0;entryPerimeter=0;" edge="1" parent="1">
          <mxGeometry width="50" height="50" relative="1" as="geometry">
            <mxPoint x="276.93" y="1971" as="sourcePoint" />
            <mxPoint x="264.3300000000001" y="1750.4" as="targetPoint" />
            <Array as="points">
              <mxPoint x="276.93" y="1970" />
              <mxPoint x="275.93" y="1970" />
              <mxPoint x="275.93" y="1971" />
              <mxPoint x="345.93" y="1971" />
              <mxPoint x="345.93" y="1750" />
            </Array>
          </mxGeometry>
        </mxCell>
        <mxCell id="GVWYBPbzkeyjMvykUmka-119" value="" style="endArrow=none;html=1;rounded=0;edgeStyle=orthogonalEdgeStyle;startArrow=none;startFill=0;" edge="1" parent="1">
          <mxGeometry width="50" height="50" relative="1" as="geometry">
            <mxPoint x="273.93" y="1990" as="sourcePoint" />
            <mxPoint x="255.93" y="1740" as="targetPoint" />
            <Array as="points">
              <mxPoint x="285.93" y="1990" />
              <mxPoint x="355.93" y="1990" />
              <mxPoint x="355.93" y="1742" />
            </Array>
          </mxGeometry>
        </mxCell>
        <mxCell id="GVWYBPbzkeyjMvykUmka-120" value="ExercÃ­cio 6" style="text;html=1;align=center;verticalAlign=middle;resizable=0;points=[];autosize=1;strokeColor=none;fillColor=none;" vertex="1" parent="1">
          <mxGeometry x="-50.06999999999999" y="2050" width="80" height="30" as="geometry" />
        </mxCell>
        <mxCell id="GVWYBPbzkeyjMvykUmka-121" value="&lt;font style=&quot;vertical-align: inherit;&quot; dir=&quot;auto&quot;&gt;&lt;font style=&quot;vertical-align: inherit;&quot; dir=&quot;auto&quot;&gt;&lt;font style=&quot;vertical-align: inherit;&quot; dir=&quot;auto&quot;&gt;&lt;font style=&quot;vertical-align: inherit;&quot; dir=&quot;auto&quot;&gt;atributos&lt;/font&gt;&lt;/font&gt;&lt;span style=&quot;white-space: pre;&quot;&gt;&#x9;&lt;/span&gt;&lt;/font&gt;&lt;/font&gt;" style="swimlane;whiteSpace=wrap;html=1;" vertex="1" parent="1">
          <mxGeometry x="-355" y="2250" width="140" height="150" as="geometry" />
        </mxCell>
        <mxCell id="GVWYBPbzkeyjMvykUmka-122" value="&lt;font style=&quot;vertical-align: inherit;&quot; dir=&quot;auto&quot;&gt;&lt;font style=&quot;vertical-align: inherit;&quot; dir=&quot;auto&quot;&gt;&lt;font style=&quot;vertical-align: inherit;&quot; dir=&quot;auto&quot;&gt;&lt;font style=&quot;vertical-align: inherit;&quot; dir=&quot;auto&quot;&gt;nome&lt;/font&gt;&lt;/font&gt;&lt;/font&gt;&lt;/font&gt;" style="text;html=1;align=center;verticalAlign=middle;resizable=0;points=[];autosize=1;strokeColor=none;fillColor=none;" vertex="1" parent="GVWYBPbzkeyjMvykUmka-121">
          <mxGeometry x="11" y="50" width="50" height="30" as="geometry" />
        </mxCell>
        <mxCell id="GVWYBPbzkeyjMvykUmka-123" value="id_aluno" style="text;html=1;align=center;verticalAlign=middle;resizable=0;points=[];autosize=1;strokeColor=none;fillColor=none;" vertex="1" parent="GVWYBPbzkeyjMvykUmka-121">
          <mxGeometry x="9" y="30" width="70" height="30" as="geometry" />
        </mxCell>
        <mxCell id="GVWYBPbzkeyjMvykUmka-124" value="endereÃ§o" style="text;html=1;align=center;verticalAlign=middle;resizable=0;points=[];autosize=1;strokeColor=none;fillColor=none;" vertex="1" parent="GVWYBPbzkeyjMvykUmka-121">
          <mxGeometry x="9" y="80" width="70" height="30" as="geometry" />
        </mxCell>
        <mxCell id="GVWYBPbzkeyjMvykUmka-125" value="&lt;font style=&quot;vertical-align: inherit;&quot; dir=&quot;auto&quot;&gt;&lt;font style=&quot;vertical-align: inherit;&quot; dir=&quot;auto&quot;&gt;&lt;font style=&quot;vertical-align: inherit;&quot; dir=&quot;auto&quot;&gt;&lt;font style=&quot;vertical-align: inherit;&quot; dir=&quot;auto&quot;&gt;atributos&lt;/font&gt;&lt;/font&gt;&lt;/font&gt;&lt;/font&gt;" style="swimlane;whiteSpace=wrap;html=1;" vertex="1" parent="1">
          <mxGeometry x="135" y="2250" width="140" height="188" as="geometry" />
        </mxCell>
        <mxCell id="GVWYBPbzkeyjMvykUmka-126" value="&lt;font style=&quot;vertical-align: inherit;&quot; dir=&quot;auto&quot;&gt;&lt;font style=&quot;vertical-align: inherit;&quot; dir=&quot;auto&quot;&gt;id_curso&lt;/font&gt;&lt;/font&gt;" style="text;html=1;align=center;verticalAlign=middle;resizable=0;points=[];autosize=1;strokeColor=none;fillColor=none;" vertex="1" parent="GVWYBPbzkeyjMvykUmka-125">
          <mxGeometry y="30" width="70" height="30" as="geometry" />
        </mxCell>
        <mxCell id="GVWYBPbzkeyjMvykUmka-127" value="&lt;font style=&quot;vertical-align: inherit;&quot; dir=&quot;auto&quot;&gt;&lt;font style=&quot;vertical-align: inherit;&quot; dir=&quot;auto&quot;&gt;id_aluno&lt;/font&gt;&lt;/font&gt;" style="text;html=1;align=center;verticalAlign=middle;resizable=0;points=[];autosize=1;strokeColor=none;fillColor=none;" vertex="1" parent="GVWYBPbzkeyjMvykUmka-125">
          <mxGeometry y="60" width="70" height="30" as="geometry" />
        </mxCell>
        <mxCell id="GVWYBPbzkeyjMvykUmka-128" value="&lt;font style=&quot;vertical-align: inherit;&quot; dir=&quot;auto&quot;&gt;&lt;font style=&quot;vertical-align: inherit;&quot; dir=&quot;auto&quot;&gt;nome&lt;/font&gt;&lt;/font&gt;" style="text;html=1;align=center;verticalAlign=middle;resizable=0;points=[];autosize=1;strokeColor=none;fillColor=none;" vertex="1" parent="GVWYBPbzkeyjMvykUmka-125">
          <mxGeometry y="85" width="50" height="30" as="geometry" />
        </mxCell>
        <mxCell id="GVWYBPbzkeyjMvykUmka-129" value="preÃ§o" style="text;html=1;align=center;verticalAlign=middle;resizable=0;points=[];autosize=1;strokeColor=none;fillColor=none;" vertex="1" parent="GVWYBPbzkeyjMvykUmka-125">
          <mxGeometry x="1" y="108" width="50" height="30" as="geometry" />
        </mxCell>
        <mxCell id="GVWYBPbzkeyjMvykUmka-130" value="turma" style="text;html=1;align=center;verticalAlign=middle;resizable=0;points=[];autosize=1;strokeColor=none;fillColor=none;" vertex="1" parent="GVWYBPbzkeyjMvykUmka-125">
          <mxGeometry x="1" y="146" width="50" height="30" as="geometry" />
        </mxCell>
        <mxCell id="GVWYBPbzkeyjMvykUmka-131" style="edgeStyle=orthogonalEdgeStyle;rounded=0;orthogonalLoop=1;jettySize=auto;html=1;" edge="1" parent="1" source="GVWYBPbzkeyjMvykUmka-135">
          <mxGeometry relative="1" as="geometry">
            <mxPoint x="-175" y="2170" as="targetPoint" />
          </mxGeometry>
        </mxCell>
        <mxCell id="GVWYBPbzkeyjMvykUmka-132" value="1" style="edgeLabel;html=1;align=center;verticalAlign=middle;resizable=0;points=[];" vertex="1" connectable="0" parent="GVWYBPbzkeyjMvykUmka-131">
          <mxGeometry x="0.7227" y="-1" relative="1" as="geometry">
            <mxPoint x="-1" as="offset" />
          </mxGeometry>
        </mxCell>
        <mxCell id="GVWYBPbzkeyjMvykUmka-133" style="edgeStyle=orthogonalEdgeStyle;rounded=0;orthogonalLoop=1;jettySize=auto;html=1;exitX=1;exitY=0.5;exitDx=0;exitDy=0;" edge="1" parent="1" source="GVWYBPbzkeyjMvykUmka-135">
          <mxGeometry relative="1" as="geometry">
            <mxPoint x="145" y="2170" as="targetPoint" />
          </mxGeometry>
        </mxCell>
        <mxCell id="GVWYBPbzkeyjMvykUmka-134" value="1" style="edgeLabel;html=1;align=center;verticalAlign=middle;resizable=0;points=[];" vertex="1" connectable="0" parent="GVWYBPbzkeyjMvykUmka-133">
          <mxGeometry x="0.6666" y="-2" relative="1" as="geometry">
            <mxPoint as="offset" />
          </mxGeometry>
        </mxCell>
        <mxCell id="GVWYBPbzkeyjMvykUmka-135" value="ESCOLHE" style="rhombus;whiteSpace=wrap;html=1;" vertex="1" parent="1">
          <mxGeometry x="-45" y="2130" width="80" height="80" as="geometry" />
        </mxCell>
        <mxCell id="GVWYBPbzkeyjMvykUmka-136" value="ALUNO" style="rounded=0;whiteSpace=wrap;html=1;" vertex="1" parent="1">
          <mxGeometry x="-295" y="2150" width="120" height="60" as="geometry" />
        </mxCell>
        <mxCell id="GVWYBPbzkeyjMvykUmka-137" value="&lt;font style=&quot;vertical-align: inherit;&quot; dir=&quot;auto&quot;&gt;&lt;font style=&quot;vertical-align: inherit;&quot; dir=&quot;auto&quot;&gt;CURSO&lt;/font&gt;&lt;/font&gt;" style="rounded=1;whiteSpace=wrap;html=1;" vertex="1" parent="1">
          <mxGeometry x="145" y="2150" width="120" height="60" as="geometry" />
        </mxCell>
        <mxCell id="GVWYBPbzkeyjMvykUmka-138" value="" style="endArrow=none;html=1;rounded=0;edgeStyle=orthogonalEdgeStyle;entryX=0;entryY=0.75;entryDx=0;entryDy=0;startArrow=oval;startFill=1;" edge="1" parent="1" target="GVWYBPbzkeyjMvykUmka-136">
          <mxGeometry width="50" height="50" relative="1" as="geometry">
            <mxPoint x="-355" y="2291" as="sourcePoint" />
            <mxPoint x="-415" y="2190" as="targetPoint" />
            <Array as="points">
              <mxPoint x="-355" y="2292" />
              <mxPoint x="-414" y="2292" />
              <mxPoint x="-414" y="2195" />
            </Array>
          </mxGeometry>
        </mxCell>
        <mxCell id="GVWYBPbzkeyjMvykUmka-139" value="" style="endArrow=none;html=1;rounded=0;edgeStyle=orthogonalEdgeStyle;startArrow=oval;startFill=0;" edge="1" parent="1" target="GVWYBPbzkeyjMvykUmka-137">
          <mxGeometry width="50" height="50" relative="1" as="geometry">
            <mxPoint x="285" y="2330" as="sourcePoint" />
            <mxPoint x="325" y="2170" as="targetPoint" />
            <Array as="points">
              <mxPoint x="275" y="2330" />
              <mxPoint x="275" y="2331" />
              <mxPoint x="326" y="2331" />
              <mxPoint x="326" y="2188" />
            </Array>
          </mxGeometry>
        </mxCell>
        <mxCell id="GVWYBPbzkeyjMvykUmka-140" value="" style="endArrow=none;html=1;rounded=0;startArrow=oval;startFill=1;edgeStyle=orthogonalEdgeStyle;entryX=1;entryY=0.75;entryDx=0;entryDy=0;" edge="1" parent="1" target="GVWYBPbzkeyjMvykUmka-137">
          <mxGeometry width="50" height="50" relative="1" as="geometry">
            <mxPoint x="285" y="2290" as="sourcePoint" />
            <mxPoint x="305" y="2200" as="targetPoint" />
            <Array as="points">
              <mxPoint x="275" y="2290" />
              <mxPoint x="275" y="2291" />
              <mxPoint x="316" y="2291" />
              <mxPoint x="316" y="2195" />
            </Array>
          </mxGeometry>
        </mxCell>
        <mxCell id="GVWYBPbzkeyjMvykUmka-141" value="" style="endArrow=none;html=1;rounded=0;edgeStyle=orthogonalEdgeStyle;entryX=0;entryY=0.25;entryDx=0;entryDy=0;startArrow=none;startFill=0;exitX=0;exitY=0.5;exitDx=0;exitDy=0;" edge="1" parent="1" source="GVWYBPbzkeyjMvykUmka-121" target="GVWYBPbzkeyjMvykUmka-136">
          <mxGeometry width="50" height="50" relative="1" as="geometry">
            <mxPoint x="-465" y="2320" as="sourcePoint" />
            <mxPoint x="-415" y="2170" as="targetPoint" />
            <Array as="points">
              <mxPoint x="-435" y="2325" />
              <mxPoint x="-435" y="2170" />
              <mxPoint x="-295" y="2170" />
            </Array>
          </mxGeometry>
        </mxCell>
        <mxCell id="GVWYBPbzkeyjMvykUmka-142" value="" style="endArrow=none;html=1;rounded=0;edgeStyle=orthogonalEdgeStyle;startArrow=none;startFill=0;" edge="1" parent="1">
          <mxGeometry width="50" height="50" relative="1" as="geometry">
            <mxPoint x="275" y="2351" as="sourcePoint" />
            <mxPoint x="265" y="2200" as="targetPoint" />
            <Array as="points">
              <mxPoint x="275" y="2351" />
              <mxPoint x="336" y="2351" />
              <mxPoint x="336" y="2178" />
              <mxPoint x="265" y="2178" />
            </Array>
          </mxGeometry>
        </mxCell>
        <mxCell id="GVWYBPbzkeyjMvykUmka-143" value="" style="endArrow=none;html=1;rounded=0;edgeStyle=orthogonalEdgeStyle;startArrow=none;startFill=0;entryX=1;entryY=0.5;entryDx=0;entryDy=0;" edge="1" parent="1" target="GVWYBPbzkeyjMvykUmka-137">
          <mxGeometry width="50" height="50" relative="1" as="geometry">
            <mxPoint x="275" y="2375" as="sourcePoint" />
            <mxPoint x="265" y="2168" as="targetPoint" />
            <Array as="points">
              <mxPoint x="275" y="2374" />
              <mxPoint x="274" y="2374" />
              <mxPoint x="274" y="2375" />
              <mxPoint x="344" y="2375" />
              <mxPoint x="344" y="2173" />
              <mxPoint x="265" y="2173" />
            </Array>
          </mxGeometry>
        </mxCell>
        <mxCell id="GVWYBPbzkeyjMvykUmka-144" value="" style="endArrow=none;html=1;rounded=0;edgeStyle=orthogonalEdgeStyle;startArrow=none;startFill=0;" edge="1" parent="1">
          <mxGeometry width="50" height="50" relative="1" as="geometry">
            <mxPoint x="274" y="2398" as="sourcePoint" />
            <mxPoint x="265" y="2158" as="targetPoint" />
            <Array as="points">
              <mxPoint x="356" y="2398" />
              <mxPoint x="356" y="2168" />
              <mxPoint x="265" y="2168" />
            </Array>
          </mxGeometry>
        </mxCell>
        <mxCell id="GVWYBPbzkeyjMvykUmka-145" value="" style="endArrow=none;html=1;rounded=0;edgeStyle=orthogonalEdgeStyle;startArrow=none;startFill=0;entryX=-0.015;entryY=0.127;entryDx=0;entryDy=0;entryPerimeter=0;" edge="1" parent="1" target="GVWYBPbzkeyjMvykUmka-136">
          <mxGeometry width="50" height="50" relative="1" as="geometry">
            <mxPoint x="-355" y="2358" as="sourcePoint" />
            <mxPoint x="-335" y="2155" as="targetPoint" />
            <Array as="points">
              <mxPoint x="-355" y="2348" />
              <mxPoint x="-455" y="2348" />
              <mxPoint x="-455" y="2158" />
            </Array>
          </mxGeometry>
        </mxCell>
        <mxCell id="GVWYBPbzkeyjMvykUmka-146" value="horÃ¡rio" style="text;html=1;align=center;verticalAlign=middle;resizable=0;points=[];autosize=1;strokeColor=none;fillColor=none;" vertex="1" parent="1">
          <mxGeometry x="134" y="2380" width="60" height="30" as="geometry" />
        </mxCell>
        <mxCell id="GVWYBPbzkeyjMvykUmka-147" value="" style="endArrow=none;html=1;rounded=0;edgeStyle=orthogonalEdgeStyle;startArrow=none;startFill=0;" edge="1" parent="1">
          <mxGeometry width="50" height="50" relative="1" as="geometry">
            <mxPoint x="274" y="2420" as="sourcePoint" />
            <mxPoint x="245" y="2148" as="targetPoint" />
            <Array as="points">
              <mxPoint x="375" y="2420" />
              <mxPoint x="375" y="2150" />
            </Array>
          </mxGeometry>
        </mxCell>
        <mxCell id="GVWYBPbzkeyjMvykUmka-148" value="" style="endArrow=none;html=1;rounded=0;edgeStyle=orthogonalEdgeStyle;startArrow=none;startFill=0;" edge="1" parent="1">
          <mxGeometry width="50" height="50" relative="1" as="geometry">
            <mxPoint x="275" y="2408" as="sourcePoint" />
            <mxPoint x="265" y="2158" as="targetPoint" />
            <Array as="points">
              <mxPoint x="362" y="2411" />
              <mxPoint x="362" y="2158" />
              <mxPoint x="271" y="2158" />
            </Array>
          </mxGeometry>
        </mxCell>
        <mxCell id="GVWYBPbzkeyjMvykUmka-149" value="ExercÃ­cio 7" style="text;html=1;align=center;verticalAlign=middle;resizable=0;points=[];autosize=1;strokeColor=none;fillColor=none;" vertex="1" parent="1">
          <mxGeometry x="-39" y="2470" width="80" height="30" as="geometry" />
        </mxCell>
        <mxCell id="GVWYBPbzkeyjMvykUmka-150" value="&lt;font style=&quot;vertical-align: inherit;&quot; dir=&quot;auto&quot;&gt;&lt;font style=&quot;vertical-align: inherit;&quot; dir=&quot;auto&quot;&gt;&lt;font style=&quot;vertical-align: inherit;&quot; dir=&quot;auto&quot;&gt;&lt;font style=&quot;vertical-align: inherit;&quot; dir=&quot;auto&quot;&gt;atributos&lt;/font&gt;&lt;/font&gt;&lt;span style=&quot;white-space: pre;&quot;&gt;&#x9;&lt;/span&gt;&lt;/font&gt;&lt;/font&gt;" style="swimlane;whiteSpace=wrap;html=1;" vertex="1" parent="1">
          <mxGeometry x="-350" y="2642" width="140" height="150" as="geometry" />
        </mxCell>
        <mxCell id="GVWYBPbzkeyjMvykUmka-151" value="&lt;font style=&quot;vertical-align: inherit;&quot; dir=&quot;auto&quot;&gt;&lt;font style=&quot;vertical-align: inherit;&quot; dir=&quot;auto&quot;&gt;&lt;font style=&quot;vertical-align: inherit;&quot; dir=&quot;auto&quot;&gt;&lt;font style=&quot;vertical-align: inherit;&quot; dir=&quot;auto&quot;&gt;nome&lt;/font&gt;&lt;/font&gt;&lt;/font&gt;&lt;/font&gt;" style="text;html=1;align=center;verticalAlign=middle;resizable=0;points=[];autosize=1;strokeColor=none;fillColor=none;" vertex="1" parent="GVWYBPbzkeyjMvykUmka-150">
          <mxGeometry x="11" y="50" width="50" height="30" as="geometry" />
        </mxCell>
        <mxCell id="GVWYBPbzkeyjMvykUmka-152" value="id_aluno" style="text;html=1;align=center;verticalAlign=middle;resizable=0;points=[];autosize=1;strokeColor=none;fillColor=none;" vertex="1" parent="GVWYBPbzkeyjMvykUmka-150">
          <mxGeometry x="9" y="30" width="70" height="30" as="geometry" />
        </mxCell>
        <mxCell id="GVWYBPbzkeyjMvykUmka-153" value="endereÃ§o" style="text;html=1;align=center;verticalAlign=middle;resizable=0;points=[];autosize=1;strokeColor=none;fillColor=none;" vertex="1" parent="GVWYBPbzkeyjMvykUmka-150">
          <mxGeometry x="9" y="80" width="70" height="30" as="geometry" />
        </mxCell>
        <mxCell id="GVWYBPbzkeyjMvykUmka-154" value="&lt;font style=&quot;vertical-align: inherit;&quot; dir=&quot;auto&quot;&gt;&lt;font style=&quot;vertical-align: inherit;&quot; dir=&quot;auto&quot;&gt;&lt;font style=&quot;vertical-align: inherit;&quot; dir=&quot;auto&quot;&gt;&lt;font style=&quot;vertical-align: inherit;&quot; dir=&quot;auto&quot;&gt;atributos&lt;/font&gt;&lt;/font&gt;&lt;/font&gt;&lt;/font&gt;" style="swimlane;whiteSpace=wrap;html=1;" vertex="1" parent="1">
          <mxGeometry x="140" y="2642" width="140" height="188" as="geometry" />
        </mxCell>
        <mxCell id="GVWYBPbzkeyjMvykUmka-155" value="&lt;font style=&quot;vertical-align: inherit;&quot; dir=&quot;auto&quot;&gt;&lt;font style=&quot;vertical-align: inherit;&quot; dir=&quot;auto&quot;&gt;id_curso&lt;/font&gt;&lt;/font&gt;" style="text;html=1;align=center;verticalAlign=middle;resizable=0;points=[];autosize=1;strokeColor=none;fillColor=none;" vertex="1" parent="GVWYBPbzkeyjMvykUmka-154">
          <mxGeometry y="30" width="70" height="30" as="geometry" />
        </mxCell>
        <mxCell id="GVWYBPbzkeyjMvykUmka-156" value="&lt;font style=&quot;vertical-align: inherit;&quot; dir=&quot;auto&quot;&gt;&lt;font style=&quot;vertical-align: inherit;&quot; dir=&quot;auto&quot;&gt;id_aluno&lt;/font&gt;&lt;/font&gt;" style="text;html=1;align=center;verticalAlign=middle;resizable=0;points=[];autosize=1;strokeColor=none;fillColor=none;" vertex="1" parent="GVWYBPbzkeyjMvykUmka-154">
          <mxGeometry y="60" width="70" height="30" as="geometry" />
        </mxCell>
        <mxCell id="GVWYBPbzkeyjMvykUmka-157" value="&lt;font style=&quot;vertical-align: inherit;&quot; dir=&quot;auto&quot;&gt;&lt;font style=&quot;vertical-align: inherit;&quot; dir=&quot;auto&quot;&gt;nome&lt;/font&gt;&lt;/font&gt;" style="text;html=1;align=center;verticalAlign=middle;resizable=0;points=[];autosize=1;strokeColor=none;fillColor=none;" vertex="1" parent="GVWYBPbzkeyjMvykUmka-154">
          <mxGeometry y="85" width="50" height="30" as="geometry" />
        </mxCell>
        <mxCell id="GVWYBPbzkeyjMvykUmka-158" value="preÃ§o" style="text;html=1;align=center;verticalAlign=middle;resizable=0;points=[];autosize=1;strokeColor=none;fillColor=none;" vertex="1" parent="GVWYBPbzkeyjMvykUmka-154">
          <mxGeometry x="1" y="108" width="50" height="30" as="geometry" />
        </mxCell>
        <mxCell id="GVWYBPbzkeyjMvykUmka-159" value="turma" style="text;html=1;align=center;verticalAlign=middle;resizable=0;points=[];autosize=1;strokeColor=none;fillColor=none;" vertex="1" parent="GVWYBPbzkeyjMvykUmka-154">
          <mxGeometry x="1" y="146" width="50" height="30" as="geometry" />
        </mxCell>
        <mxCell id="GVWYBPbzkeyjMvykUmka-160" style="edgeStyle=orthogonalEdgeStyle;rounded=0;orthogonalLoop=1;jettySize=auto;html=1;" edge="1" parent="1" source="GVWYBPbzkeyjMvykUmka-164">
          <mxGeometry relative="1" as="geometry">
            <mxPoint x="-170" y="2562" as="targetPoint" />
          </mxGeometry>
        </mxCell>
        <mxCell id="GVWYBPbzkeyjMvykUmka-161" value="1" style="edgeLabel;html=1;align=center;verticalAlign=middle;resizable=0;points=[];" vertex="1" connectable="0" parent="GVWYBPbzkeyjMvykUmka-160">
          <mxGeometry x="0.7227" y="-1" relative="1" as="geometry">
            <mxPoint x="-1" as="offset" />
          </mxGeometry>
        </mxCell>
        <mxCell id="GVWYBPbzkeyjMvykUmka-162" style="edgeStyle=orthogonalEdgeStyle;rounded=0;orthogonalLoop=1;jettySize=auto;html=1;exitX=1;exitY=0.5;exitDx=0;exitDy=0;" edge="1" parent="1" source="GVWYBPbzkeyjMvykUmka-164">
          <mxGeometry relative="1" as="geometry">
            <mxPoint x="150" y="2562" as="targetPoint" />
          </mxGeometry>
        </mxCell>
        <mxCell id="GVWYBPbzkeyjMvykUmka-163" value="1" style="edgeLabel;html=1;align=center;verticalAlign=middle;resizable=0;points=[];" vertex="1" connectable="0" parent="GVWYBPbzkeyjMvykUmka-162">
          <mxGeometry x="0.6666" y="-2" relative="1" as="geometry">
            <mxPoint as="offset" />
          </mxGeometry>
        </mxCell>
        <mxCell id="GVWYBPbzkeyjMvykUmka-164" value="ESCOLHE" style="rhombus;whiteSpace=wrap;html=1;" vertex="1" parent="1">
          <mxGeometry x="-40" y="2522" width="80" height="80" as="geometry" />
        </mxCell>
        <mxCell id="GVWYBPbzkeyjMvykUmka-165" value="ALUNO" style="rounded=0;whiteSpace=wrap;html=1;" vertex="1" parent="1">
          <mxGeometry x="-290" y="2542" width="120" height="60" as="geometry" />
        </mxCell>
        <mxCell id="GVWYBPbzkeyjMvykUmka-166" value="&lt;font style=&quot;vertical-align: inherit;&quot; dir=&quot;auto&quot;&gt;&lt;font style=&quot;vertical-align: inherit;&quot; dir=&quot;auto&quot;&gt;CURSO&lt;/font&gt;&lt;/font&gt;" style="rounded=1;whiteSpace=wrap;html=1;" vertex="1" parent="1">
          <mxGeometry x="150" y="2542" width="120" height="60" as="geometry" />
        </mxCell>
        <mxCell id="GVWYBPbzkeyjMvykUmka-167" value="" style="endArrow=none;html=1;rounded=0;edgeStyle=orthogonalEdgeStyle;entryX=0;entryY=0.75;entryDx=0;entryDy=0;startArrow=oval;startFill=1;" edge="1" parent="1" target="GVWYBPbzkeyjMvykUmka-165">
          <mxGeometry width="50" height="50" relative="1" as="geometry">
            <mxPoint x="-350" y="2683" as="sourcePoint" />
            <mxPoint x="-410" y="2582" as="targetPoint" />
            <Array as="points">
              <mxPoint x="-350" y="2684" />
              <mxPoint x="-409" y="2684" />
              <mxPoint x="-409" y="2587" />
            </Array>
          </mxGeometry>
        </mxCell>
        <mxCell id="GVWYBPbzkeyjMvykUmka-168" value="" style="endArrow=none;html=1;rounded=0;edgeStyle=orthogonalEdgeStyle;startArrow=oval;startFill=0;" edge="1" parent="1" target="GVWYBPbzkeyjMvykUmka-166">
          <mxGeometry width="50" height="50" relative="1" as="geometry">
            <mxPoint x="290" y="2722" as="sourcePoint" />
            <mxPoint x="330" y="2562" as="targetPoint" />
            <Array as="points">
              <mxPoint x="280" y="2722" />
              <mxPoint x="280" y="2723" />
              <mxPoint x="331" y="2723" />
              <mxPoint x="331" y="2580" />
            </Array>
          </mxGeometry>
        </mxCell>
        <mxCell id="GVWYBPbzkeyjMvykUmka-169" value="" style="endArrow=none;html=1;rounded=0;startArrow=oval;startFill=1;edgeStyle=orthogonalEdgeStyle;entryX=1;entryY=0.75;entryDx=0;entryDy=0;" edge="1" parent="1" target="GVWYBPbzkeyjMvykUmka-166">
          <mxGeometry width="50" height="50" relative="1" as="geometry">
            <mxPoint x="290" y="2682" as="sourcePoint" />
            <mxPoint x="310" y="2592" as="targetPoint" />
            <Array as="points">
              <mxPoint x="280" y="2682" />
              <mxPoint x="280" y="2683" />
              <mxPoint x="321" y="2683" />
              <mxPoint x="321" y="2587" />
            </Array>
          </mxGeometry>
        </mxCell>
        <mxCell id="GVWYBPbzkeyjMvykUmka-170" value="" style="endArrow=none;html=1;rounded=0;edgeStyle=orthogonalEdgeStyle;entryX=0;entryY=0.25;entryDx=0;entryDy=0;startArrow=none;startFill=0;exitX=0;exitY=0.5;exitDx=0;exitDy=0;" edge="1" parent="1" source="GVWYBPbzkeyjMvykUmka-150" target="GVWYBPbzkeyjMvykUmka-165">
          <mxGeometry width="50" height="50" relative="1" as="geometry">
            <mxPoint x="-460" y="2712" as="sourcePoint" />
            <mxPoint x="-410" y="2562" as="targetPoint" />
            <Array as="points">
              <mxPoint x="-430" y="2717" />
              <mxPoint x="-430" y="2562" />
              <mxPoint x="-290" y="2562" />
            </Array>
          </mxGeometry>
        </mxCell>
        <mxCell id="GVWYBPbzkeyjMvykUmka-171" value="" style="endArrow=none;html=1;rounded=0;edgeStyle=orthogonalEdgeStyle;startArrow=none;startFill=0;" edge="1" parent="1">
          <mxGeometry width="50" height="50" relative="1" as="geometry">
            <mxPoint x="280" y="2743" as="sourcePoint" />
            <mxPoint x="270" y="2592" as="targetPoint" />
            <Array as="points">
              <mxPoint x="280" y="2743" />
              <mxPoint x="341" y="2743" />
              <mxPoint x="341" y="2570" />
              <mxPoint x="270" y="2570" />
            </Array>
          </mxGeometry>
        </mxCell>
        <mxCell id="GVWYBPbzkeyjMvykUmka-172" value="" style="endArrow=none;html=1;rounded=0;edgeStyle=orthogonalEdgeStyle;startArrow=none;startFill=0;entryX=1;entryY=0.5;entryDx=0;entryDy=0;" edge="1" parent="1" target="GVWYBPbzkeyjMvykUmka-166">
          <mxGeometry width="50" height="50" relative="1" as="geometry">
            <mxPoint x="280" y="2767" as="sourcePoint" />
            <mxPoint x="270" y="2560" as="targetPoint" />
            <Array as="points">
              <mxPoint x="280" y="2766" />
              <mxPoint x="279" y="2766" />
              <mxPoint x="279" y="2767" />
              <mxPoint x="349" y="2767" />
              <mxPoint x="349" y="2565" />
              <mxPoint x="270" y="2565" />
            </Array>
          </mxGeometry>
        </mxCell>
        <mxCell id="GVWYBPbzkeyjMvykUmka-173" value="" style="endArrow=none;html=1;rounded=0;edgeStyle=orthogonalEdgeStyle;startArrow=none;startFill=0;" edge="1" parent="1">
          <mxGeometry width="50" height="50" relative="1" as="geometry">
            <mxPoint x="279" y="2790" as="sourcePoint" />
            <mxPoint x="270" y="2550" as="targetPoint" />
            <Array as="points">
              <mxPoint x="361" y="2790" />
              <mxPoint x="361" y="2560" />
              <mxPoint x="270" y="2560" />
            </Array>
          </mxGeometry>
        </mxCell>
        <mxCell id="GVWYBPbzkeyjMvykUmka-174" value="" style="endArrow=none;html=1;rounded=0;edgeStyle=orthogonalEdgeStyle;startArrow=none;startFill=0;entryX=-0.015;entryY=0.127;entryDx=0;entryDy=0;entryPerimeter=0;" edge="1" parent="1" target="GVWYBPbzkeyjMvykUmka-165">
          <mxGeometry width="50" height="50" relative="1" as="geometry">
            <mxPoint x="-350" y="2750" as="sourcePoint" />
            <mxPoint x="-330" y="2547" as="targetPoint" />
            <Array as="points">
              <mxPoint x="-350" y="2740" />
              <mxPoint x="-450" y="2740" />
              <mxPoint x="-450" y="2550" />
            </Array>
          </mxGeometry>
        </mxCell>
        <mxCell id="GVWYBPbzkeyjMvykUmka-175" value="horÃ¡rio" style="text;html=1;align=center;verticalAlign=middle;resizable=0;points=[];autosize=1;strokeColor=none;fillColor=none;" vertex="1" parent="1">
          <mxGeometry x="139" y="2772" width="60" height="30" as="geometry" />
        </mxCell>
        <mxCell id="GVWYBPbzkeyjMvykUmka-176" value="" style="endArrow=none;html=1;rounded=0;edgeStyle=orthogonalEdgeStyle;startArrow=none;startFill=0;" edge="1" parent="1">
          <mxGeometry width="50" height="50" relative="1" as="geometry">
            <mxPoint x="279" y="2812" as="sourcePoint" />
            <mxPoint x="250" y="2540" as="targetPoint" />
            <Array as="points">
              <mxPoint x="380" y="2812" />
              <mxPoint x="380" y="2542" />
            </Array>
          </mxGeometry>
        </mxCell>
        <mxCell id="GVWYBPbzkeyjMvykUmka-177" value="" style="endArrow=none;html=1;rounded=0;edgeStyle=orthogonalEdgeStyle;startArrow=none;startFill=0;" edge="1" parent="1">
          <mxGeometry width="50" height="50" relative="1" as="geometry">
            <mxPoint x="280" y="2800" as="sourcePoint" />
            <mxPoint x="270" y="2550" as="targetPoint" />
            <Array as="points">
              <mxPoint x="367" y="2803" />
              <mxPoint x="367" y="2550" />
              <mxPoint x="276" y="2550" />
            </Array>
          </mxGeometry>
        </mxCell>
        <mxCell id="GVWYBPbzkeyjMvykUmka-178" value="ExercÃ­cio 8" style="text;html=1;align=center;verticalAlign=middle;resizable=0;points=[];autosize=1;strokeColor=none;fillColor=none;" vertex="1" parent="1">
          <mxGeometry x="-45" y="2923" width="80" height="30" as="geometry" />
        </mxCell>
        <mxCell id="GVWYBPbzkeyjMvykUmka-179" value="&lt;font style=&quot;vertical-align: inherit;&quot; dir=&quot;auto&quot;&gt;&lt;font style=&quot;vertical-align: inherit;&quot; dir=&quot;auto&quot;&gt;&lt;font style=&quot;vertical-align: inherit;&quot; dir=&quot;auto&quot;&gt;&lt;font style=&quot;vertical-align: inherit;&quot; dir=&quot;auto&quot;&gt;atributos&lt;/font&gt;&lt;/font&gt;&lt;span style=&quot;white-space: pre;&quot;&gt;&#x9;&lt;/span&gt;&lt;/font&gt;&lt;/font&gt;" style="swimlane;whiteSpace=wrap;html=1;" vertex="1" parent="1">
          <mxGeometry x="-387" y="3112.44" width="140" height="150" as="geometry" />
        </mxCell>
        <mxCell id="GVWYBPbzkeyjMvykUmka-180" value="&lt;font style=&quot;vertical-align: inherit;&quot; dir=&quot;auto&quot;&gt;&lt;font style=&quot;vertical-align: inherit;&quot; dir=&quot;auto&quot;&gt;&lt;font style=&quot;vertical-align: inherit;&quot; dir=&quot;auto&quot;&gt;&lt;font style=&quot;vertical-align: inherit;&quot; dir=&quot;auto&quot;&gt;nome&lt;/font&gt;&lt;/font&gt;&lt;/font&gt;&lt;/font&gt;" style="text;html=1;align=center;verticalAlign=middle;resizable=0;points=[];autosize=1;strokeColor=none;fillColor=none;" vertex="1" parent="GVWYBPbzkeyjMvykUmka-179">
          <mxGeometry x="11" y="50" width="50" height="30" as="geometry" />
        </mxCell>
        <mxCell id="GVWYBPbzkeyjMvykUmka-181" value="id_departamento" style="text;html=1;align=center;verticalAlign=middle;resizable=0;points=[];autosize=1;strokeColor=none;fillColor=none;" vertex="1" parent="GVWYBPbzkeyjMvykUmka-179">
          <mxGeometry x="9" y="28" width="110" height="30" as="geometry" />
        </mxCell>
        <mxCell id="GVWYBPbzkeyjMvykUmka-183" value="&lt;font style=&quot;vertical-align: inherit;&quot; dir=&quot;auto&quot;&gt;&lt;font style=&quot;vertical-align: inherit;&quot; dir=&quot;auto&quot;&gt;&lt;font style=&quot;vertical-align: inherit;&quot; dir=&quot;auto&quot;&gt;&lt;font style=&quot;vertical-align: inherit;&quot; dir=&quot;auto&quot;&gt;atributos&lt;/font&gt;&lt;/font&gt;&lt;/font&gt;&lt;/font&gt;" style="swimlane;whiteSpace=wrap;html=1;" vertex="1" parent="1">
          <mxGeometry x="174" y="3112" width="140" height="188" as="geometry" />
        </mxCell>
        <mxCell id="GVWYBPbzkeyjMvykUmka-184" value="&lt;font style=&quot;vertical-align: inherit;&quot; dir=&quot;auto&quot;&gt;&lt;font style=&quot;vertical-align: inherit;&quot; dir=&quot;auto&quot;&gt;id_projeto&lt;/font&gt;&lt;/font&gt;" style="text;html=1;align=center;verticalAlign=middle;resizable=0;points=[];autosize=1;strokeColor=none;fillColor=none;" vertex="1" parent="GVWYBPbzkeyjMvykUmka-183">
          <mxGeometry x="10" y="30" width="80" height="30" as="geometry" />
        </mxCell>
        <mxCell id="GVWYBPbzkeyjMvykUmka-185" value="&lt;font style=&quot;vertical-align: inherit;&quot; dir=&quot;auto&quot;&gt;&lt;font style=&quot;vertical-align: inherit;&quot; dir=&quot;auto&quot;&gt;id_departamento&lt;/font&gt;&lt;/font&gt;" style="text;html=1;align=center;verticalAlign=middle;resizable=0;points=[];autosize=1;strokeColor=none;fillColor=none;" vertex="1" parent="GVWYBPbzkeyjMvykUmka-183">
          <mxGeometry x="14" y="56" width="110" height="30" as="geometry" />
        </mxCell>
        <mxCell id="GVWYBPbzkeyjMvykUmka-186" value="&lt;font style=&quot;vertical-align: inherit;&quot; dir=&quot;auto&quot;&gt;&lt;font style=&quot;vertical-align: inherit;&quot; dir=&quot;auto&quot;&gt;id_funcionario&lt;/font&gt;&lt;/font&gt;" style="text;html=1;align=center;verticalAlign=middle;resizable=0;points=[];autosize=1;strokeColor=none;fillColor=none;" vertex="1" parent="GVWYBPbzkeyjMvykUmka-183">
          <mxGeometry x="11" y="81" width="100" height="30" as="geometry" />
        </mxCell>
        <mxCell id="GVWYBPbzkeyjMvykUmka-187" value="nome" style="text;html=1;align=center;verticalAlign=middle;resizable=0;points=[];autosize=1;strokeColor=none;fillColor=none;" vertex="1" parent="GVWYBPbzkeyjMvykUmka-183">
          <mxGeometry x="16" y="108" width="50" height="30" as="geometry" />
        </mxCell>
        <mxCell id="GVWYBPbzkeyjMvykUmka-188" value="preÃ§o" style="text;html=1;align=center;verticalAlign=middle;resizable=0;points=[];autosize=1;strokeColor=none;fillColor=none;" vertex="1" parent="GVWYBPbzkeyjMvykUmka-183">
          <mxGeometry x="15" y="149" width="50" height="30" as="geometry" />
        </mxCell>
        <mxCell id="GVWYBPbzkeyjMvykUmka-189" style="edgeStyle=orthogonalEdgeStyle;rounded=0;orthogonalLoop=1;jettySize=auto;html=1;" edge="1" parent="1" source="GVWYBPbzkeyjMvykUmka-190">
          <mxGeometry relative="1" as="geometry">
            <mxPoint x="-57" y="3040" as="targetPoint" />
          </mxGeometry>
        </mxCell>
        <mxCell id="GVWYBPbzkeyjMvykUmka-239" value="1" style="edgeLabel;html=1;align=center;verticalAlign=middle;resizable=0;points=[];" vertex="1" connectable="0" parent="GVWYBPbzkeyjMvykUmka-189">
          <mxGeometry x="-0.6043" y="-1" relative="1" as="geometry">
            <mxPoint as="offset" />
          </mxGeometry>
        </mxCell>
        <mxCell id="GVWYBPbzkeyjMvykUmka-190" value="DEPARTAMENTO" style="rounded=0;whiteSpace=wrap;html=1;" vertex="1" parent="1">
          <mxGeometry x="-326" y="3010" width="120" height="60" as="geometry" />
        </mxCell>
        <mxCell id="GVWYBPbzkeyjMvykUmka-191" style="edgeStyle=orthogonalEdgeStyle;rounded=0;orthogonalLoop=1;jettySize=auto;html=1;" edge="1" parent="1" source="GVWYBPbzkeyjMvykUmka-192">
          <mxGeometry relative="1" as="geometry">
            <mxPoint x="133" y="3310" as="targetPoint" />
            <Array as="points">
              <mxPoint x="134" y="3050" />
              <mxPoint x="134" y="3310" />
            </Array>
          </mxGeometry>
        </mxCell>
        <mxCell id="GVWYBPbzkeyjMvykUmka-244" value="N&lt;div&gt;&lt;br&gt;&lt;/div&gt;" style="edgeLabel;html=1;align=center;verticalAlign=middle;resizable=0;points=[];" vertex="1" connectable="0" parent="GVWYBPbzkeyjMvykUmka-191">
          <mxGeometry x="0.1228" y="4" relative="1" as="geometry">
            <mxPoint y="1" as="offset" />
          </mxGeometry>
        </mxCell>
        <mxCell id="GVWYBPbzkeyjMvykUmka-192" value="&lt;font style=&quot;vertical-align: inherit;&quot; dir=&quot;auto&quot;&gt;&lt;font style=&quot;vertical-align: inherit;&quot; dir=&quot;auto&quot;&gt;PROJETO&lt;/font&gt;&lt;/font&gt;" style="rounded=1;whiteSpace=wrap;html=1;" vertex="1" parent="1">
          <mxGeometry x="184" y="3012" width="120" height="60" as="geometry" />
        </mxCell>
        <mxCell id="GVWYBPbzkeyjMvykUmka-193" value="" style="endArrow=none;html=1;rounded=0;edgeStyle=orthogonalEdgeStyle;entryX=0;entryY=0.75;entryDx=0;entryDy=0;startArrow=oval;startFill=1;" edge="1" parent="1">
          <mxGeometry width="50" height="50" relative="1" as="geometry">
            <mxPoint x="-387" y="3153.44" as="sourcePoint" />
            <mxPoint x="-327" y="3057.44" as="targetPoint" />
            <Array as="points">
              <mxPoint x="-387" y="3154.44" />
              <mxPoint x="-446" y="3154.44" />
              <mxPoint x="-446" y="3057.44" />
            </Array>
          </mxGeometry>
        </mxCell>
        <mxCell id="GVWYBPbzkeyjMvykUmka-194" value="" style="endArrow=none;html=1;rounded=0;edgeStyle=orthogonalEdgeStyle;startArrow=oval;startFill=0;" edge="1" parent="1" target="GVWYBPbzkeyjMvykUmka-192">
          <mxGeometry width="50" height="50" relative="1" as="geometry">
            <mxPoint x="324" y="3192" as="sourcePoint" />
            <mxPoint x="364" y="3032" as="targetPoint" />
            <Array as="points">
              <mxPoint x="314" y="3192" />
              <mxPoint x="314" y="3193" />
              <mxPoint x="365" y="3193" />
              <mxPoint x="365" y="3050" />
            </Array>
          </mxGeometry>
        </mxCell>
        <mxCell id="GVWYBPbzkeyjMvykUmka-195" value="" style="endArrow=none;html=1;rounded=0;startArrow=oval;startFill=1;edgeStyle=orthogonalEdgeStyle;entryX=1;entryY=0.75;entryDx=0;entryDy=0;" edge="1" parent="1" target="GVWYBPbzkeyjMvykUmka-192">
          <mxGeometry width="50" height="50" relative="1" as="geometry">
            <mxPoint x="324" y="3152" as="sourcePoint" />
            <mxPoint x="344" y="3062" as="targetPoint" />
            <Array as="points">
              <mxPoint x="314" y="3152" />
              <mxPoint x="314" y="3153" />
              <mxPoint x="355" y="3153" />
              <mxPoint x="355" y="3057" />
            </Array>
          </mxGeometry>
        </mxCell>
        <mxCell id="GVWYBPbzkeyjMvykUmka-196" value="" style="endArrow=none;html=1;rounded=0;edgeStyle=orthogonalEdgeStyle;startArrow=none;startFill=0;exitX=0;exitY=0.5;exitDx=0;exitDy=0;" edge="1" parent="1" source="GVWYBPbzkeyjMvykUmka-179">
          <mxGeometry width="50" height="50" relative="1" as="geometry">
            <mxPoint x="-497" y="3182.44" as="sourcePoint" />
            <mxPoint x="-327" y="3027" as="targetPoint" />
            <Array as="points">
              <mxPoint x="-467" y="3187.44" />
              <mxPoint x="-467" y="3032.44" />
              <mxPoint x="-327" y="3032.44" />
            </Array>
          </mxGeometry>
        </mxCell>
        <mxCell id="GVWYBPbzkeyjMvykUmka-197" value="" style="endArrow=none;html=1;rounded=0;edgeStyle=orthogonalEdgeStyle;startArrow=oval;startFill=0;" edge="1" parent="1">
          <mxGeometry width="50" height="50" relative="1" as="geometry">
            <mxPoint x="314" y="3213" as="sourcePoint" />
            <mxPoint x="304" y="3062" as="targetPoint" />
            <Array as="points">
              <mxPoint x="314" y="3213" />
              <mxPoint x="375" y="3213" />
              <mxPoint x="375" y="3040" />
              <mxPoint x="304" y="3040" />
            </Array>
          </mxGeometry>
        </mxCell>
        <mxCell id="GVWYBPbzkeyjMvykUmka-198" value="" style="endArrow=none;html=1;rounded=0;edgeStyle=orthogonalEdgeStyle;startArrow=none;startFill=0;entryX=1;entryY=0.5;entryDx=0;entryDy=0;" edge="1" parent="1" target="GVWYBPbzkeyjMvykUmka-192">
          <mxGeometry width="50" height="50" relative="1" as="geometry">
            <mxPoint x="314" y="3237" as="sourcePoint" />
            <mxPoint x="304" y="3030" as="targetPoint" />
            <Array as="points">
              <mxPoint x="314" y="3236" />
              <mxPoint x="313" y="3236" />
              <mxPoint x="313" y="3237" />
              <mxPoint x="383" y="3237" />
              <mxPoint x="383" y="3035" />
              <mxPoint x="304" y="3035" />
            </Array>
          </mxGeometry>
        </mxCell>
        <mxCell id="GVWYBPbzkeyjMvykUmka-199" value="" style="endArrow=none;html=1;rounded=0;edgeStyle=orthogonalEdgeStyle;startArrow=none;startFill=0;" edge="1" parent="1">
          <mxGeometry width="50" height="50" relative="1" as="geometry">
            <mxPoint x="313" y="3260" as="sourcePoint" />
            <mxPoint x="304" y="3020" as="targetPoint" />
            <Array as="points">
              <mxPoint x="395" y="3260" />
              <mxPoint x="395" y="3030" />
              <mxPoint x="304" y="3030" />
            </Array>
          </mxGeometry>
        </mxCell>
        <mxCell id="GVWYBPbzkeyjMvykUmka-200" value="" style="endArrow=none;html=1;rounded=0;edgeStyle=orthogonalEdgeStyle;startArrow=none;startFill=0;entryX=-0.015;entryY=0.127;entryDx=0;entryDy=0;entryPerimeter=0;" edge="1" parent="1">
          <mxGeometry width="50" height="50" relative="1" as="geometry">
            <mxPoint x="-387" y="3220.44" as="sourcePoint" />
            <mxPoint x="-328.79999999999995" y="3020.06" as="targetPoint" />
            <Array as="points">
              <mxPoint x="-387" y="3210.44" />
              <mxPoint x="-487" y="3210.44" />
              <mxPoint x="-487" y="3020.44" />
            </Array>
          </mxGeometry>
        </mxCell>
        <mxCell id="GVWYBPbzkeyjMvykUmka-201" value="prazo" style="text;html=1;align=center;verticalAlign=middle;resizable=0;points=[];autosize=1;strokeColor=none;fillColor=none;" vertex="1" parent="1">
          <mxGeometry x="189" y="3242" width="50" height="30" as="geometry" />
        </mxCell>
        <mxCell id="GVWYBPbzkeyjMvykUmka-202" value="" style="endArrow=none;html=1;rounded=0;edgeStyle=orthogonalEdgeStyle;startArrow=none;startFill=0;" edge="1" parent="1">
          <mxGeometry width="50" height="50" relative="1" as="geometry">
            <mxPoint x="313" y="3282" as="sourcePoint" />
            <mxPoint x="284" y="3010" as="targetPoint" />
            <Array as="points">
              <mxPoint x="414" y="3282" />
              <mxPoint x="414" y="3012" />
            </Array>
          </mxGeometry>
        </mxCell>
        <mxCell id="GVWYBPbzkeyjMvykUmka-203" value="" style="endArrow=none;html=1;rounded=0;edgeStyle=orthogonalEdgeStyle;startArrow=none;startFill=0;" edge="1" parent="1">
          <mxGeometry width="50" height="50" relative="1" as="geometry">
            <mxPoint x="314" y="3270" as="sourcePoint" />
            <mxPoint x="304" y="3020" as="targetPoint" />
            <Array as="points">
              <mxPoint x="401" y="3273" />
              <mxPoint x="401" y="3020" />
              <mxPoint x="310" y="3020" />
            </Array>
          </mxGeometry>
        </mxCell>
        <mxCell id="GVWYBPbzkeyjMvykUmka-204" value="ATRIBUTO" style="swimlane;whiteSpace=wrap;html=1;" vertex="1" parent="1">
          <mxGeometry x="-147" y="3430" width="161" height="200" as="geometry" />
        </mxCell>
        <mxCell id="GVWYBPbzkeyjMvykUmka-205" value="id_departamento" style="text;html=1;align=center;verticalAlign=middle;resizable=0;points=[];autosize=1;strokeColor=none;fillColor=none;" vertex="1" parent="GVWYBPbzkeyjMvykUmka-204">
          <mxGeometry x="11" y="66" width="110" height="30" as="geometry" />
        </mxCell>
        <mxCell id="GVWYBPbzkeyjMvykUmka-206" value="id_projeto" style="text;html=1;align=center;verticalAlign=middle;resizable=0;points=[];autosize=1;strokeColor=none;fillColor=none;" vertex="1" parent="GVWYBPbzkeyjMvykUmka-204">
          <mxGeometry x="7" y="88" width="80" height="30" as="geometry" />
        </mxCell>
        <mxCell id="GVWYBPbzkeyjMvykUmka-207" value="nome" style="text;html=1;align=center;verticalAlign=middle;resizable=0;points=[];autosize=1;strokeColor=none;fillColor=none;" vertex="1" parent="GVWYBPbzkeyjMvykUmka-204">
          <mxGeometry x="11" y="111" width="50" height="30" as="geometry" />
        </mxCell>
        <mxCell id="GVWYBPbzkeyjMvykUmka-208" value="EndereÃ§o" style="text;html=1;align=center;verticalAlign=middle;resizable=0;points=[];autosize=1;strokeColor=none;fillColor=none;" vertex="1" parent="GVWYBPbzkeyjMvykUmka-204">
          <mxGeometry x="11" y="133" width="70" height="30" as="geometry" />
        </mxCell>
        <mxCell id="GVWYBPbzkeyjMvykUmka-209" value="salÃ¡rio" style="text;html=1;align=center;verticalAlign=middle;resizable=0;points=[];autosize=1;strokeColor=none;fillColor=none;" vertex="1" parent="GVWYBPbzkeyjMvykUmka-204">
          <mxGeometry x="10" y="155" width="60" height="30" as="geometry" />
        </mxCell>
        <mxCell id="GVWYBPbzkeyjMvykUmka-210" value="id_funcionario" style="text;html=1;align=center;verticalAlign=middle;resizable=0;points=[];autosize=1;strokeColor=none;fillColor=none;" vertex="1" parent="1">
          <mxGeometry x="-137.5" y="3472" width="100" height="30" as="geometry" />
        </mxCell>
        <mxCell id="GVWYBPbzkeyjMvykUmka-211" style="edgeStyle=orthogonalEdgeStyle;rounded=0;orthogonalLoop=1;jettySize=auto;html=1;" edge="1" parent="1" source="GVWYBPbzkeyjMvykUmka-212">
          <mxGeometry relative="1" as="geometry">
            <mxPoint x="83" y="3350" as="targetPoint" />
            <Array as="points">
              <mxPoint x="33" y="3330" />
              <mxPoint x="33" y="3351" />
              <mxPoint x="83" y="3351" />
            </Array>
          </mxGeometry>
        </mxCell>
        <mxCell id="GVWYBPbzkeyjMvykUmka-243" value="1" style="edgeLabel;html=1;align=center;verticalAlign=middle;resizable=0;points=[];" vertex="1" connectable="0" parent="GVWYBPbzkeyjMvykUmka-211">
          <mxGeometry x="0.1704" y="-4" relative="1" as="geometry">
            <mxPoint x="-1" as="offset" />
          </mxGeometry>
        </mxCell>
        <mxCell id="GVWYBPbzkeyjMvykUmka-212" value="FUNCIONÃRIO" style="rounded=0;whiteSpace=wrap;html=1;" vertex="1" parent="1">
          <mxGeometry x="-136.5" y="3300" width="120" height="60" as="geometry" />
        </mxCell>
        <mxCell id="GVWYBPbzkeyjMvykUmka-213" value="" style="endArrow=none;html=1;rounded=0;edgeStyle=orthogonalEdgeStyle;entryX=0;entryY=0.75;entryDx=0;entryDy=0;startArrow=oval;startFill=1;" edge="1" parent="1" target="GVWYBPbzkeyjMvykUmka-212">
          <mxGeometry width="50" height="50" relative="1" as="geometry">
            <mxPoint x="-146.5" y="3487.44" as="sourcePoint" />
            <mxPoint x="-196.5" y="3448" as="targetPoint" />
            <Array as="points">
              <mxPoint x="-196.5" y="3487" />
              <mxPoint x="-196.5" y="3345" />
            </Array>
          </mxGeometry>
        </mxCell>
        <mxCell id="GVWYBPbzkeyjMvykUmka-214" value="" style="endArrow=none;html=1;rounded=0;edgeStyle=orthogonalEdgeStyle;entryX=0;entryY=0.5;entryDx=0;entryDy=0;startArrow=oval;startFill=0;" edge="1" parent="1" target="GVWYBPbzkeyjMvykUmka-212">
          <mxGeometry width="50" height="50" relative="1" as="geometry">
            <mxPoint x="-146.5" y="3508" as="sourcePoint" />
            <mxPoint x="-176.5" y="3328" as="targetPoint" />
            <Array as="points">
              <mxPoint x="-146.5" y="3508" />
              <mxPoint x="-206.5" y="3508" />
              <mxPoint x="-206.5" y="3338" />
              <mxPoint x="-136.5" y="3338" />
            </Array>
          </mxGeometry>
        </mxCell>
        <mxCell id="GVWYBPbzkeyjMvykUmka-215" value="" style="endArrow=none;html=1;rounded=0;edgeStyle=orthogonalEdgeStyle;entryX=0;entryY=0.25;entryDx=0;entryDy=0;startArrow=oval;startFill=0;" edge="1" parent="1" target="GVWYBPbzkeyjMvykUmka-212">
          <mxGeometry width="50" height="50" relative="1" as="geometry">
            <mxPoint x="-146.5" y="3530" as="sourcePoint" />
            <mxPoint x="-146.5" y="3318" as="targetPoint" />
            <Array as="points">
              <mxPoint x="-146.5" y="3528" />
              <mxPoint x="-216.5" y="3528" />
              <mxPoint x="-216.5" y="3330" />
              <mxPoint x="-136.5" y="3330" />
            </Array>
          </mxGeometry>
        </mxCell>
        <mxCell id="GVWYBPbzkeyjMvykUmka-216" value="" style="endArrow=none;html=1;rounded=0;edgeStyle=orthogonalEdgeStyle;" edge="1" parent="1">
          <mxGeometry width="50" height="50" relative="1" as="geometry">
            <mxPoint x="-151.5" y="3553" as="sourcePoint" />
            <mxPoint x="-141.5" y="3318" as="targetPoint" />
            <Array as="points">
              <mxPoint x="-151.5" y="3553" />
              <mxPoint x="-221.5" y="3553" />
              <mxPoint x="-221.5" y="3318" />
            </Array>
          </mxGeometry>
        </mxCell>
        <mxCell id="GVWYBPbzkeyjMvykUmka-217" value="" style="endArrow=none;html=1;rounded=0;edgeStyle=orthogonalEdgeStyle;entryX=0;entryY=0.25;entryDx=0;entryDy=0;" edge="1" parent="1" target="GVWYBPbzkeyjMvykUmka-212">
          <mxGeometry width="50" height="50" relative="1" as="geometry">
            <mxPoint x="-146.5" y="3568" as="sourcePoint" />
            <mxPoint x="-156.5" y="3308" as="targetPoint" />
            <Array as="points">
              <mxPoint x="-236.5" y="3568" />
              <mxPoint x="-236.5" y="3315" />
            </Array>
          </mxGeometry>
        </mxCell>
        <mxCell id="GVWYBPbzkeyjMvykUmka-218" value="" style="endArrow=none;html=1;rounded=0;edgeStyle=orthogonalEdgeStyle;entryX=0;entryY=0.25;entryDx=0;entryDy=0;" edge="1" parent="1">
          <mxGeometry width="50" height="50" relative="1" as="geometry">
            <mxPoint x="-147.5" y="3598" as="sourcePoint" />
            <mxPoint x="-137.5" y="3308" as="targetPoint" />
            <Array as="points">
              <mxPoint x="-246.5" y="3598" />
              <mxPoint x="-246.5" y="3308" />
            </Array>
          </mxGeometry>
        </mxCell>
        <mxCell id="GVWYBPbzkeyjMvykUmka-219" style="edgeStyle=orthogonalEdgeStyle;rounded=0;orthogonalLoop=1;jettySize=auto;html=1;" edge="1" parent="1" source="GVWYBPbzkeyjMvykUmka-220">
          <mxGeometry relative="1" as="geometry">
            <mxPoint x="183" y="3040" as="targetPoint" />
          </mxGeometry>
        </mxCell>
        <mxCell id="GVWYBPbzkeyjMvykUmka-240" value="N" style="edgeLabel;html=1;align=center;verticalAlign=middle;resizable=0;points=[];" vertex="1" connectable="0" parent="GVWYBPbzkeyjMvykUmka-219">
          <mxGeometry x="-0.4815" y="-3" relative="1" as="geometry">
            <mxPoint x="1" as="offset" />
          </mxGeometry>
        </mxCell>
        <mxCell id="GVWYBPbzkeyjMvykUmka-220" value="TEM" style="rhombus;whiteSpace=wrap;html=1;" vertex="1" parent="1">
          <mxGeometry x="-53" y="3000" width="80" height="80" as="geometry" />
        </mxCell>
        <mxCell id="GVWYBPbzkeyjMvykUmka-221" style="edgeStyle=orthogonalEdgeStyle;rounded=0;orthogonalLoop=1;jettySize=auto;html=1;entryX=0.75;entryY=1;entryDx=0;entryDy=0;" edge="1" parent="1" source="GVWYBPbzkeyjMvykUmka-223" target="GVWYBPbzkeyjMvykUmka-190">
          <mxGeometry relative="1" as="geometry" />
        </mxCell>
        <mxCell id="GVWYBPbzkeyjMvykUmka-241" value="1" style="edgeLabel;html=1;align=center;verticalAlign=middle;resizable=0;points=[];" vertex="1" connectable="0" parent="GVWYBPbzkeyjMvykUmka-221">
          <mxGeometry x="-0.0247" y="-1" relative="1" as="geometry">
            <mxPoint x="1" as="offset" />
          </mxGeometry>
        </mxCell>
        <mxCell id="GVWYBPbzkeyjMvykUmka-222" style="edgeStyle=orthogonalEdgeStyle;rounded=0;orthogonalLoop=1;jettySize=auto;html=1;" edge="1" parent="1" source="GVWYBPbzkeyjMvykUmka-223">
          <mxGeometry relative="1" as="geometry">
            <mxPoint x="-76" y="3290" as="targetPoint" />
          </mxGeometry>
        </mxCell>
        <mxCell id="GVWYBPbzkeyjMvykUmka-242" value="1" style="edgeLabel;html=1;align=center;verticalAlign=middle;resizable=0;points=[];" vertex="1" connectable="0" parent="GVWYBPbzkeyjMvykUmka-222">
          <mxGeometry x="0.6088" y="-3" relative="1" as="geometry">
            <mxPoint as="offset" />
          </mxGeometry>
        </mxCell>
        <mxCell id="GVWYBPbzkeyjMvykUmka-223" value="TEM" style="rhombus;whiteSpace=wrap;html=1;" vertex="1" parent="1">
          <mxGeometry x="-247" y="3130" width="80" height="80" as="geometry" />
        </mxCell>
        <mxCell id="GVWYBPbzkeyjMvykUmka-224" value="TEM" style="rhombus;whiteSpace=wrap;html=1;" vertex="1" parent="1">
          <mxGeometry x="94" y="3310" width="80" height="80" as="geometry" />
        </mxCell>
        <mxCell id="GVWYBPbzkeyjMvykUmka-232" style="edgeStyle=orthogonalEdgeStyle;rounded=0;orthogonalLoop=1;jettySize=auto;html=1;" edge="1" parent="1" source="GVWYBPbzkeyjMvykUmka-225" target="GVWYBPbzkeyjMvykUmka-226">
          <mxGeometry relative="1" as="geometry" />
        </mxCell>
        <mxCell id="GVWYBPbzkeyjMvykUmka-238" value="N" style="edgeLabel;html=1;align=center;verticalAlign=middle;resizable=0;points=[];" vertex="1" connectable="0" parent="GVWYBPbzkeyjMvykUmka-232">
          <mxGeometry x="-0.6527" y="3" relative="1" as="geometry">
            <mxPoint as="offset" />
          </mxGeometry>
        </mxCell>
        <mxCell id="GVWYBPbzkeyjMvykUmka-225" value="LOCALIZAÃÃO" style="rounded=0;whiteSpace=wrap;html=1;" vertex="1" parent="1">
          <mxGeometry x="-760" y="2900" width="120" height="60" as="geometry" />
        </mxCell>
        <mxCell id="GVWYBPbzkeyjMvykUmka-226" value="TEM" style="rhombus;whiteSpace=wrap;html=1;" vertex="1" parent="1">
          <mxGeometry x="-458" y="2890" width="88" height="80" as="geometry" />
        </mxCell>
        <mxCell id="GVWYBPbzkeyjMvykUmka-227" value="ATRIBUTOS" style="swimlane;whiteSpace=wrap;html=1;startSize=23;" vertex="1" parent="1">
          <mxGeometry x="-760" y="3070" width="140" height="200" as="geometry" />
        </mxCell>
        <mxCell id="GVWYBPbzkeyjMvykUmka-228" value="id_localizaÃ§Ã£o" style="text;html=1;align=center;verticalAlign=middle;resizable=0;points=[];autosize=1;strokeColor=none;fillColor=none;" vertex="1" parent="GVWYBPbzkeyjMvykUmka-227">
          <mxGeometry y="30" width="100" height="30" as="geometry" />
        </mxCell>
        <mxCell id="GVWYBPbzkeyjMvykUmka-229" value="endereÃ§o" style="text;html=1;align=center;verticalAlign=middle;resizable=0;points=[];autosize=1;strokeColor=none;fillColor=none;" vertex="1" parent="GVWYBPbzkeyjMvykUmka-227">
          <mxGeometry x="10" y="100" width="70" height="30" as="geometry" />
        </mxCell>
        <mxCell id="GVWYBPbzkeyjMvykUmka-230" value="id_departameto" style="text;html=1;align=center;verticalAlign=middle;resizable=0;points=[];autosize=1;strokeColor=none;fillColor=none;" vertex="1" parent="GVWYBPbzkeyjMvykUmka-227">
          <mxGeometry y="60" width="110" height="30" as="geometry" />
        </mxCell>
        <mxCell id="GVWYBPbzkeyjMvykUmka-233" style="edgeStyle=orthogonalEdgeStyle;rounded=0;orthogonalLoop=1;jettySize=auto;html=1;entryX=0.417;entryY=-0.029;entryDx=0;entryDy=0;entryPerimeter=0;" edge="1" parent="1" source="GVWYBPbzkeyjMvykUmka-226" target="GVWYBPbzkeyjMvykUmka-190">
          <mxGeometry relative="1" as="geometry" />
        </mxCell>
        <mxCell id="GVWYBPbzkeyjMvykUmka-237" value="1" style="edgeLabel;html=1;align=center;verticalAlign=middle;resizable=0;points=[];" vertex="1" connectable="0" parent="GVWYBPbzkeyjMvykUmka-233">
          <mxGeometry x="0.6324" y="-2" relative="1" as="geometry">
            <mxPoint y="1" as="offset" />
          </mxGeometry>
        </mxCell>
        <mxCell id="GVWYBPbzkeyjMvykUmka-234" value="" style="endArrow=none;html=1;rounded=0;edgeStyle=orthogonalEdgeStyle;exitX=0.024;exitY=0.114;exitDx=0;exitDy=0;exitPerimeter=0;entryX=0;entryY=0.5;entryDx=0;entryDy=0;startArrow=oval;startFill=1;" edge="1" parent="1" source="GVWYBPbzkeyjMvykUmka-228" target="GVWYBPbzkeyjMvykUmka-225">
          <mxGeometry width="50" height="50" relative="1" as="geometry">
            <mxPoint x="-850" y="3090" as="sourcePoint" />
            <mxPoint x="-790" y="2930" as="targetPoint" />
            <Array as="points">
              <mxPoint x="-800" y="3103" />
              <mxPoint x="-800" y="2930" />
            </Array>
          </mxGeometry>
        </mxCell>
        <mxCell id="GVWYBPbzkeyjMvykUmka-235" value="" style="endArrow=none;html=1;rounded=0;edgeStyle=orthogonalEdgeStyle;entryX=0;entryY=0.5;entryDx=0;entryDy=0;" edge="1" parent="1">
          <mxGeometry width="50" height="50" relative="1" as="geometry">
            <mxPoint x="-760" y="3130" as="sourcePoint" />
            <mxPoint x="-760" y="2920" as="targetPoint" />
            <Array as="points">
              <mxPoint x="-820" y="3130" />
              <mxPoint x="-820" y="2920" />
            </Array>
          </mxGeometry>
        </mxCell>
        <mxCell id="GVWYBPbzkeyjMvykUmka-236" value="" style="endArrow=none;html=1;rounded=0;edgeStyle=orthogonalEdgeStyle;entryX=0;entryY=0.25;entryDx=0;entryDy=0;startArrow=oval;startFill=0;" edge="1" parent="1" target="GVWYBPbzkeyjMvykUmka-225">
          <mxGeometry width="50" height="50" relative="1" as="geometry">
            <mxPoint x="-758" y="3180" as="sourcePoint" />
            <mxPoint x="-778" y="2910" as="targetPoint" />
            <Array as="points">
              <mxPoint x="-838" y="3180" />
              <mxPoint x="-838" y="2910" />
              <mxPoint x="-760" y="2910" />
            </Array>
          </mxGeometry>
        </mxCell>
      </root>
    </mxGraphModel>
  </diagram>
</mxfile>
